<svg id="Layer_1" data-name="Layer 1" xmlns="http://www.w3.org/2000/svg" viewBox="0 0 28 28"><defs><style>.cls-1{fill:#e6001f;}.cls-2{fill:#fff;}</style></defs><g id="adobe"><path id="bg" class="cls-1" d="M0,10.13C0,6.59,0,4.81.69,3.46A6.39,6.39,0,0,1,3.46.69C4.81,0,6.59,0,10.13,0h7.74c3.54,0,5.32,0,6.67.69a6.39,6.39,0,0,1,2.77,2.77C28,4.81,28,6.59,28,10.13v7.74c0,3.54,0,5.32-.69,6.67a6.39,6.39,0,0,1-2.77,2.77c-1.35.69-3.13.69-6.67.69H10.13c-3.54,0-5.32,0-6.67-.69A6.39,6.39,0,0,1,.69,24.54C0,23.19,0,21.41,0,17.87Z"/><path id="adobe_2" data-name="adobe 2" class="cls-2" d="M5,21S11.22,6,11.21,6h4.72L23,21H17.66s-4-9.2-4.05-9.3C13.6,11.78,11,18,10.92,18h2.85S15,21,15,21Z"/></g></svg>