<svg id="Layer_2" data-name="Layer 2" xmlns="http://www.w3.org/2000/svg" viewBox="0 0 42.05 43.1"><defs><style>.cls-1{fill:#efefef;}.cls-2{fill:#f60;}</style></defs><rect class="cls-1" width="42.05" height="43.1"/><path d="M9.78,27.26A1.2,1.2,0,0,1,9.3,27c-1.41-1.37.39-2.95,2.47-3.86V20.53a4.48,4.48,0,0,0,.77.36l1.6-1.57L13.6,18A53.77,53.77,0,0,1,23.93,15.1l-.68-.64,1.11-.63c2.56.84,5,1.06,4.54,3.2.11-1.45-1.69-2-4.44-2.78l-.53.33,1,.84A61.12,61.12,0,0,0,14.3,18.23l.46,1.18L13.09,21A7.16,7.16,0,0,0,19.3,20s.06,0,.06-.06a3.38,3.38,0,0,0-.54-.53A1.45,1.45,0,0,1,20.17,21h-.41a1.52,1.52,0,0,0-.12-.73,7.93,7.93,0,0,1-7.38,1.15v2c-1.12.4-3.12,1.63-3.12,2.83a1.11,1.11,0,0,0,.64.93"/><path class="cls-2" d="M19.27,26.74a19.09,19.09,0,0,1-8.62,2.43c-4.82-.1-5.57-3.3-3.29-6.65a20.61,20.61,0,0,1,11-8.34A20.05,20.05,0,0,1,24.52,13c3.22,0,6.34,1,6.14,4.06-.12,2.36-3.52,5.69-5.33,8.08-.76,1-.9,1.73.42,1.67,4.76-.31,9.09-2,13.1-3.67-2.71,1.84-16.75,8.79-16.81,4a3.79,3.79,0,0,1,.76-1.92,22,22,0,0,1,1.69-2.11,35.21,35.21,0,0,0,4.13-5.26c1.35-3-1.66-3.12-4.26-4l-1.11.63.68.64A53.77,53.77,0,0,0,13.6,18l.54,1.36-1.6,1.58a4.61,4.61,0,0,1-.76-.37v2.61C9.69,24.06,7.89,25.63,9.3,27a1.31,1.31,0,0,0,.48.25c2.56,1.45,9.51-.51,9.49-.51"/></svg>