<svg id="Layer_2" data-name="Layer 2" xmlns="http://www.w3.org/2000/svg" viewBox="0 0 42.05 43.1"><defs><style>.cls-1{fill:#efefef;}.cls-2{fill:#ed1c24;}</style></defs><rect class="cls-1" width="42.05" height="43.1"/><path class="cls-2" d="M34.77,23V20.93h-.68v-.67h.68V19.07h.77v1.19h1v.67h-1v2c0,.44.19.64.53.64a.75.75,0,0,0,.33-.07l.26.64a1.5,1.5,0,0,1-.59.1,1.14,1.14,0,0,1-1.26-1A1,1,0,0,1,34.77,23ZM30,22.2a2,2,0,0,1,1.91-2h0A1.88,1.88,0,0,1,33.88,22a1.93,1.93,0,0,1,0,.24v.13h-3.1A1.26,1.26,0,0,0,32,23.65h0A1.08,1.08,0,0,0,33.08,23l.66.27A1.78,1.78,0,0,1,32,24.31a2,2,0,0,1-2-1.92.76.76,0,0,1,0-.15Zm1.87-1.4a1.16,1.16,0,0,0-1.12.94h2.27A1.07,1.07,0,0,0,31.91,20.8Zm-5.42,2.83h0v.54h-.77V18.46h.77V20.8h0a1.53,1.53,0,0,1,1.29-.64,2.09,2.09,0,0,1,0,4.15h0A1.52,1.52,0,0,1,26.49,23.63Zm2.45-1.41a1.25,1.25,0,1,0-2.48-.34,1,1,0,0,0,0,.34,1.25,1.25,0,0,0,2.48.34A1,1,0,0,0,28.94,22.22Zm-7.4.77c0-.88.77-1.36,1.71-1.36a2.2,2.2,0,0,1,1.06.24v-.11a1,1,0,0,0-1.1-1,1,1,0,0,0-.85.57l-.67-.28a1.72,1.72,0,0,1,3.25.55v2.53h-.7v-.54h0a1.47,1.47,0,0,1-1.29.66,1.33,1.33,0,0,1-1.45-1.2V23Zm2.73-.51a1.62,1.62,0,0,0-.93-.26c-.77,0-1.08.41-1.08.78s.43.63.82.63A1.23,1.23,0,0,0,24.27,22.48Zm-6.09-2.23v.54h0a1.47,1.47,0,0,1,1.23-.63,1.43,1.43,0,0,1,1.5,1.37,1.22,1.22,0,0,1,0,.27v2.39h-.77V21.88c0-.81-.41-1.08-1-1.08a1.12,1.12,0,0,0-1,1.21v2.16h-.78V18.46h.78v1.8Zm-4.47,3.37h0v2.27h-.78V20.26h.71v.54h0a1.54,1.54,0,0,1,1.4-.64,2,2,0,0,1,1.85,2.08A2,2,0,0,1,15,24.31a1.53,1.53,0,0,1-1.33-.68Zm2.45-1.41A1.29,1.29,0,0,0,15,20.8h-.06a1.29,1.29,0,0,0-1.25,1.33.28.28,0,0,0,0,.09,1.29,1.29,0,0,0,1.15,1.4h.09a1.31,1.31,0,0,0,1.25-1.35v-.05Zm-4.7,1.95h.73v-5.7h-.73Zm-3.4-5.7L5.91,24.17h.77l.56-1.55h2.4l.55,1.55H11L8.89,18.46Zm.39.92h0l1,2.56H7.52Z"/></svg>