<svg width="30" height="30" viewBox="0 0 30 30" fill="none" xmlns="http://www.w3.org/2000/svg">
<rect width="30" height="30" fill="#141920"/>
<path d="M21.044 20.5827C14.2338 23.8238 10.0072 21.1121 7.30171 19.465C7.13429 19.3612 6.84974 19.4893 7.09663 19.7729C7.99797 20.8658 10.9519 23.5 14.8076 23.5C18.6659 23.5 20.9613 21.3947 21.2484 21.0274C21.5336 20.6633 21.3322 20.4624 21.0439 20.5827H21.044ZM22.9566 19.5265C22.7738 19.2883 21.8446 19.2439 21.2598 19.3157C20.6742 19.3855 19.7951 19.7434 19.8715 19.9584C19.9107 20.0389 19.9908 20.0028 20.3931 19.9666C20.7965 19.9263 21.9267 19.7837 22.1622 20.0915C22.3988 20.4015 21.8017 21.8782 21.6927 22.1163C21.5873 22.3545 21.733 22.4159 21.9308 22.2573C22.126 22.0987 22.4794 21.6881 22.7165 21.107C22.952 20.5228 23.0956 19.7078 22.9566 19.5265H22.9566Z" fill="#FF9900"/>
<path fill-rule="evenodd" clip-rule="evenodd" d="M16.4645 13.9693C16.4645 14.8197 16.4859 15.5289 16.0561 16.2841C15.7092 16.8982 15.1596 17.2758 14.5456 17.2758C13.7074 17.2758 13.2193 16.6372 13.2193 15.6947C13.2193 13.8341 14.8863 13.4965 16.4645 13.4965V13.9693ZM18.6657 19.2898C18.5214 19.4188 18.3127 19.428 18.15 19.342C17.4254 18.7403 17.2964 18.4609 16.8973 17.8868C15.7 19.1087 14.8526 19.474 13.2991 19.474C11.4632 19.474 10.0325 18.3411 10.0325 16.0723C10.0325 14.3009 10.9935 13.0942 12.3596 12.5048C13.5447 11.9828 15.1996 11.8907 16.4645 11.7465V11.464C16.4645 10.9451 16.5043 10.3311 16.2004 9.88291C15.9333 9.48071 15.4237 9.31491 14.9754 9.31491C14.1434 9.31491 13.4004 9.74164 13.2193 10.6258C13.1824 10.8224 13.0381 11.0158 12.8417 11.025L10.7232 10.7978C10.5452 10.7579 10.3487 10.6136 10.3978 10.3403C10.886 7.77373 13.2039 7 15.2793 7C16.3416 7 17.7292 7.28248 18.5674 8.08688C19.6297 9.07851 19.5284 10.4017 19.5284 11.8416V15.2434C19.5284 16.2657 19.9521 16.7139 20.3512 17.2666C20.4924 17.4631 20.5231 17.6995 20.345 17.8468C19.8998 18.2183 19.1077 18.9091 18.6718 19.296L18.6657 19.2898" fill="white"/>
</svg>
