<svg id="Layer_2" data-name="Layer 2" xmlns="http://www.w3.org/2000/svg" viewBox="0 0 50.13 50.17"><defs><style>.cls-1{fill:#efefef;}.cls-2{fill:#ed1c24;}.cls-3{fill:#fff;}</style></defs><rect class="cls-1" x="0.17" y="0.05" width="49.95" height="49.95"/><rect class="cls-2" x="0.17" width="49.95" height="50"/><circle class="cls-3" cx="25.06" cy="25.11" r="24.04"/><path class="cls-2" d="M32.3,20.16c-1,1.1-1.55,2.31-1.13,2.63.16.12.54.14,1.23-.48a5.46,5.46,0,0,0,1.44-2,2.63,2.63,0,0,0,.29-1.57,5.74,5.74,0,0,0-1.83,1.42ZM18.18,26.68a.41.41,0,0,0,.27,0,1.65,1.65,0,0,0,.69-.56c.15-.16.31-.4.49-.64.58-.79,2.16-3.56,2.16-3.56a.22.22,0,0,0-.21-.2c-.22,0-.58.07-1.31,1a17,17,0,0,0-1.7,2.39c-.46.83-.66,1.41-.4,1.57Zm-5.8-4.9c-.38-.28-1.33.37-1.33,1s.85.89,1,.9a.12.12,0,0,0,.13-.05,3.75,3.75,0,0,0,.27-.61c.13-.35.3-1,0-1.29Zm-.57,2.39a2.94,2.94,0,0,1-.74-.34,1.81,1.81,0,0,1-.53-.58s0,0,0,0l-.6.86c-.52.74-1.26,2.27-.56,2.53.45.17,1.21-.62,1.63-1.15a10.36,10.36,0,0,0,.85-1.28s0-.05,0-.06Zm27.6,5.92a.36.36,0,0,0,.27,0c.18,0,.38-.21.68-.55a6.67,6.67,0,0,0,.49-.66c.52-.7,1.82-2.93,2.08-3.39a.25.25,0,0,0,0-.09.22.22,0,0,0-.21-.2c-.22,0-.52,0-1.3.9a11.09,11.09,0,0,0-1.67,2.38c-.46.81-.64,1.43-.38,1.59ZM34,27.73a2.79,2.79,0,0,1-.66-.42,1.86,1.86,0,0,1-.49-.6s0,0,0,0a5.61,5.61,0,0,0-.59.82c-.5.74-1.28,2.28-.57,2.54.45.17,1.2-.62,1.61-1.14a8.9,8.9,0,0,0,.76-1.16s0-.05,0-.06Zm9.84,3-.13,0h-.1v.22h.2a.11.11,0,0,0,.07-.1.1.1,0,0,0,0-.09Zm-9.17-5.53c-.38-.28-1.32.37-1.33,1a1.15,1.15,0,0,0,.83,1.05c.1,0,.12,0,.17-.05a5.39,5.39,0,0,0,.38-.76c.13-.36.29-1,0-1.29Z" transform="translate(0.17)"/><path class="cls-2" d="M24.89.05A25.06,25.06,0,1,0,50,25.11,25.06,25.06,0,0,0,24.89.05Zm-.21,21.18H26l-.76,1.24H23.92Zm-11.1,2.05c.95-.65,2.2-2.4,3.57-2.19.64.1,1.23.75.42,2-.27.39-.7.76-1,.41s0-.62.2-.9a.86.86,0,0,1,.73-.34s.23-.51-.34-.5-1.63,1.1-2.3,2.18-1.52,2.72-.6,3.08,2.46-1.57,3.2-2.57,2.45-3.27,3.87-3.37a1,1,0,0,1,.79.42l.17-.27h1.42l-2.89,4.82c-.17.26-.4.86.22.53a11.63,11.63,0,0,0,1.88-2h.49S20.89,28.2,19.49,28C18.7,28,18.94,27,18.94,27s-1.1,1.29-2.12,1-.33-1.76-.33-1.76S14.41,28.53,13,28s-.71-2.43-.43-3,.5-.94.5-.94l-.36.1-.35.07s-.69,1.12-1.12,1.68S9.05,28.4,8,28s-.78-1.86-.2-3c1-1.9,3.24-4.23,4.61-3.88s.24,2.61.24,2.61.27,0,.93-.44Zm4.91,7.47a2.22,2.22,0,0,0-1.75.95,3.44,3.44,0,0,0-3.28-1.52c-2.68,0-5.35,1.27-7.46,1.27a3.23,3.23,0,0,1-3.45-3.53c.08-4,3.43-7.53,5.93-9.14a5.63,5.63,0,0,1,3.43-1.11,1.14,1.14,0,0,1,.83,1.7c-.64,1.43-1.53,1.31-1.49.63a1,1,0,0,1,1.06-1c.13-.1.22-.88-.81-.63A8.32,8.32,0,0,0,8,20.94a14.19,14.19,0,0,0-3.48,6.37c-.21,1.21-.07,3.4,2.79,3.37,2.41,0,6-1.61,9.25-1.58a6.17,6.17,0,0,1,3.24.89,8.79,8.79,0,0,1,2.22,1.8,5.81,5.81,0,0,0-3.56-1Zm6.85.7c-2,0-3.33-2.55-.53-7,3.1-5,6.73-6.49,7.92-6.66s1.57.35,1.57.35a5.11,5.11,0,0,1,2.25-.38c1.45.1,2.56,1.12,4,1.84-.39.38-.75.76-1.08,1.12-1.1-.56-1.88-1.24-2.72-1.67a3.08,3.08,0,0,0-1.94-.49l-.27.07s.33,1.13-1,3S31.05,23.52,30.71,23s.1-1.69.88-2.7a9.36,9.36,0,0,1,2.23-1.93s-.46-.28-1.57.36a15.6,15.6,0,0,0-4.69,4.54,12.37,12.37,0,0,0-2.33,4.9c-.26,1.07,0,2.22,1.17,2.22s2.57-1.82,3-2.44c.72-1.18,1.2-3,.21-2.72a2.07,2.07,0,0,0-1.13,1.17,5.42,5.42,0,0,0-.36,1,4.5,4.5,0,0,0-1,.56,7.82,7.82,0,0,0-.91.81,5.64,5.64,0,0,1,.69-2.24,3.71,3.71,0,0,1,2.64-2.08c.64-.05,1.47.49.77,2.5s-2.78,4.43-5,4.46Zm18.83-.11a.54.54,0,0,1-.39.16.5.5,0,0,1-.4-.16.58.58,0,0,1-.17-.41.52.52,0,0,1,.17-.39.54.54,0,0,1,.4-.17.51.51,0,0,1,.4.17.54.54,0,0,1,.17.39.58.58,0,0,1-.17.41Zm3.46-13.67a7.18,7.18,0,0,1-1,1.44,6,6,0,0,1-5.41,2.19c.37-.44.72-.84,1.06-1.2A6.22,6.22,0,0,0,46,19a9,9,0,0,0,1.63-1.35ZM44.34,18c.3.2.16.88-.24,1.7l-.54.14a4.38,4.38,0,0,0,.49-1.17c.19-1-2.13,1.1-3.78,3.34a31.07,31.07,0,0,0-2.64,4.29,5.74,5.74,0,0,0,.86-.61,25.19,25.19,0,0,0,2.09-2,21.72,21.72,0,0,0,1.78-2.06,4.52,4.52,0,0,0,.53-.06,20,20,0,0,1-2,2.33,26.86,26.86,0,0,1-2,1.91,15.61,15.61,0,0,1-1.75,1.3s-1.45,2.91-.66,3.1c.46.11,1.37-1.29,1.37-1.29s1.2-1.82,1.91-2.64c1-1.11,1.83-1.76,2.67-1.78a1,1,0,0,1,.78.51l.23-.36h1.43L42,29.5c-.19.3-.4.89.23.52a9,9,0,0,0,1.86-2.11h.5a17.7,17.7,0,0,1-1.51,2c-.78.86-1.73,1.65-2.4,1.57s-.53-1.12-.53-1.12-1.12,1.2-1.9,1.12c-1-.12-.73-1.41-.73-1.41s-1.17,1.45-2,1.41c-1.26-.08-1-1.62-.6-2.7.19-.58.37-1,.37-1L35,27.8l-.39,0s-.53.93-1,1.49-2.21,2.49-3.26,2.1-.66-1.84-.09-3c.83-1.73,3.15-4.21,4.5-3.88s0,2.87,0,2.87a0,0,0,0,0,0,0,.53.53,0,0,0,.27,0,2.85,2.85,0,0,0,.51-.15,29.94,29.94,0,0,1,2.94-4.85c1.55-1.93,4.63-5.23,5.84-4.43Z" transform="translate(0.17)"/><path class="cls-2" d="M43.77,30.45a.46.46,0,0,0-.34.14.47.47,0,0,0-.15.35.49.49,0,0,0,.15.35.5.5,0,0,0,.69,0,.52.52,0,0,0,.14-.35.48.48,0,0,0-.49-.49ZM44,31a.16.16,0,0,1,0,.09v.1s0,0,0,0h-.1v-.09c0-.07,0-.12-.05-.14l-.12,0h-.09v.25h-.11v-.62h.21a.37.37,0,0,1,.18,0,.15.15,0,0,1,.1.16.14.14,0,0,1-.07.12l-.08,0S44,31,44,31Z" transform="translate(0.17)"/></svg>