<svg width="30" height="30" viewBox="0 0 30 30" fill="none" xmlns="http://www.w3.org/2000/svg">
<rect width="30" height="30" fill="#003478"/>
<path fill-rule="evenodd" clip-rule="evenodd" d="M6.67821 15.0798C6.67821 13.526 10.4031 12.2561 14.9984 12.2561C19.5936 12.2561 23.3183 13.526 23.3183 15.0798C23.3183 16.6338 19.5936 17.9037 14.9984 17.9037C10.4031 17.9037 6.67821 16.6338 6.67821 15.0798ZM6.375 15.0798C6.375 16.7808 10.2358 18.1597 14.9984 18.1597C19.7606 18.1597 23.6211 16.7808 23.6211 15.0798C23.6211 13.3786 19.7606 12 14.9984 12C10.2358 12 6.375 13.3786 6.375 15.0798ZM14.0848 14.3529C14.0904 14.3827 14.102 14.3885 14.1155 14.386C14.1827 14.3726 14.2561 14.3173 14.2996 14.2533C14.3392 14.1953 14.3578 14.1115 14.3185 14.078C14.2834 14.0478 14.2262 14.0563 14.1839 14.0938C14.0995 14.1683 14.0739 14.2741 14.0847 14.353L14.0848 14.3529ZM10.7255 16.936C10.2341 16.9392 9.80113 16.6357 9.75145 16.11C9.72384 15.8186 9.80619 15.559 9.97105 15.3451C10.1173 15.1545 10.3649 14.9961 10.5744 14.9575C10.6426 14.945 10.7342 14.9526 10.7721 14.998C10.8315 15.0672 10.8144 15.1431 10.755 15.1734C10.5951 15.255 10.4028 15.3948 10.3076 15.5856C10.2304 15.7413 10.2148 15.929 10.3327 16.1077C10.5301 16.4057 11.0802 16.4139 11.5917 15.9387C11.7184 15.8224 11.8317 15.7107 11.9469 15.5783C12.1722 15.3207 12.2472 15.2269 12.5466 14.8115C12.5498 14.8067 12.5514 14.8004 12.5498 14.7973C12.5474 14.7917 12.5434 14.7909 12.5345 14.7901C12.3346 14.7957 12.1603 14.8552 11.9909 14.9818C11.9421 15.0174 11.8719 15.0124 11.8411 14.9655C11.8069 14.9126 11.8315 14.8436 11.8877 14.8047C12.1355 14.6323 12.4041 14.5883 12.6794 14.5431L12.762 14.5295C12.7617 14.5295 12.7831 14.5303 12.8005 14.5074C12.8533 14.4396 12.9007 14.3746 12.9478 14.3099C13.012 14.2218 13.0758 14.1342 13.1525 14.0408C13.2866 13.8764 13.4597 13.7255 13.592 13.6122C13.7516 13.475 13.8617 13.4164 13.9663 13.3608L13.9664 13.3607C13.9828 13.352 13.9992 13.3433 14.0155 13.3344C14.0472 13.3179 14.0115 13.2981 14.0018 13.2981C13.9525 13.2888 13.903 13.2793 13.8534 13.2698C13.2274 13.15 12.5824 13.0265 11.964 13.2554C11.5018 13.4279 11.2993 13.7944 11.3967 14.0393C11.466 14.213 11.6945 14.2413 11.9084 14.1366C12.0861 14.0495 12.2505 13.9092 12.367 13.7286C12.4322 13.6283 12.5696 13.7007 12.4954 13.8749C12.3001 14.3339 11.927 14.6979 11.4726 14.7133C11.0858 14.7259 10.8363 14.4414 10.8371 14.0903C10.8387 13.398 11.6094 12.9419 12.4195 12.8738C13.102 12.8174 13.7593 12.9276 14.4243 13.0392L14.4243 13.0392C14.7097 13.0871 14.9966 13.1352 15.2874 13.1705C16.0295 13.2603 16.741 13.2622 17.4869 13.0909C17.5751 13.0717 17.6369 13.128 17.6312 13.217C17.6239 13.3458 17.5242 13.4697 17.2785 13.6037C16.9992 13.757 16.7069 13.8035 16.4016 13.8059C15.8939 13.8104 15.4102 13.6755 14.9261 13.5406C14.7063 13.4793 14.4865 13.418 14.2643 13.3698C14.2645 13.3752 14.2648 13.3808 14.2652 13.3865L14.2652 13.3865C14.267 13.4133 14.2688 13.4414 14.2473 13.4577C13.8531 13.7484 13.4969 14.0436 13.2583 14.4582C13.2502 14.4678 13.2543 14.4769 13.2685 14.476C13.3361 14.4723 13.4015 14.4694 13.4657 14.4664C13.5981 14.4604 13.7251 14.4546 13.8554 14.4442C13.8892 14.4409 13.8905 14.4329 13.8875 14.4082C13.8703 14.2653 13.9121 14.1024 14.0378 13.9902C14.1665 13.8749 14.3276 13.8618 14.4344 13.9449C14.5558 14.0395 14.5451 14.2096 14.4787 14.3372C14.4111 14.4667 14.2994 14.536 14.1922 14.5696C14.1922 14.5696 14.1697 14.5744 14.1731 14.5949C14.1755 14.6146 14.2296 14.6518 14.275 14.683L14.275 14.683C14.3048 14.7035 14.3308 14.7215 14.3358 14.73C14.3479 14.7505 14.3414 14.7823 14.3195 14.8067C14.304 14.8244 14.2798 14.841 14.2488 14.8405C14.2246 14.84 14.2096 14.8319 14.1797 14.8157L14.1765 14.814C14.111 14.7785 14.0291 14.7201 13.9745 14.6513C13.9559 14.628 13.9464 14.6276 13.8999 14.6301C13.6906 14.6422 13.3643 14.6738 13.1432 14.7014C13.0896 14.7078 13.0817 14.718 13.0707 14.7366L13.0468 14.776L13.0468 14.776C12.7012 15.3461 12.3325 15.9542 11.9285 16.3645C11.4853 16.8145 11.1168 16.933 10.7257 16.936L10.7255 16.936ZM18.5437 15.7936C18.5461 15.809 18.5664 15.8238 18.5861 15.8308C18.5933 15.8332 18.5969 15.8381 18.5893 15.8545C18.5415 15.957 18.497 16.0224 18.4413 16.1043L18.4413 16.1043L18.4115 16.1482C18.3469 16.2446 18.2741 16.3199 18.186 16.3922C18.053 16.5022 17.8684 16.622 17.7158 16.5415C17.6481 16.5063 17.6187 16.4114 17.62 16.3346C17.6233 16.1186 17.7193 15.8969 17.8968 15.679C18.113 15.4127 18.3521 15.2746 18.5091 15.3501C18.6714 15.4276 18.6196 15.6155 18.5469 15.7631C18.5413 15.7745 18.5413 15.7842 18.5437 15.7935L18.5437 15.7936ZM20.2859 14.1107C20.2975 14.0901 20.2852 14.0751 20.2592 14.0751L19.8044 14.0754C19.7708 14.0754 19.7534 14.0794 19.7375 14.1108C19.7032 14.1765 19.4167 14.6108 19.1909 14.9531L19.1908 14.9532L19.1907 14.9533C19.0731 15.1316 18.972 15.2849 18.9315 15.3482C18.9115 15.3764 18.8872 15.3724 18.8844 15.3401C18.8724 15.2303 18.7775 15.104 18.6281 15.0436C18.5141 14.9974 18.4028 14.989 18.287 15.0043C18.0779 15.0324 17.8917 15.1427 17.728 15.2671C17.6246 15.3457 17.5272 15.434 17.4286 15.5233L17.4286 15.5234C17.292 15.6473 17.1532 15.7731 16.9935 15.8775C16.8434 15.9753 16.638 16.0606 16.5005 15.9333C16.3761 15.8179 16.3901 15.5617 16.5805 15.3635C16.6005 15.3428 16.6246 15.3603 16.6208 15.3787C16.6029 15.4684 16.6248 15.5575 16.6929 15.62C16.776 15.6944 16.8949 15.7028 16.9966 15.6531C17.1166 15.5936 17.1872 15.4788 17.2077 15.3484C17.2395 15.1462 17.0839 14.9678 16.8891 14.9535C16.7309 14.9424 16.5791 14.9975 16.4313 15.1195C16.3571 15.181 16.3151 15.2264 16.2509 15.3176C16.2353 15.3401 16.2113 15.3423 16.2121 15.3092C16.2193 15.0502 16.1123 14.9046 15.8983 14.8998C15.7321 14.8958 15.5546 14.986 15.4163 15.0963C15.3027 15.1876 15.1997 15.3011 15.0954 15.416L15.0954 15.4161C15.0605 15.4546 15.0255 15.4932 14.9898 15.5312C14.9721 15.5499 14.9568 15.549 14.9518 15.5128C14.9477 15.3412 14.9044 15.1751 14.825 15.0571C14.7969 15.016 14.7377 14.9957 14.6881 15.0234C14.6838 15.0257 14.6777 15.0288 14.6701 15.0327L14.67 15.0328C14.6364 15.0499 14.5746 15.0813 14.5272 15.1195C14.4984 15.1432 14.4871 15.1776 14.4999 15.2216C14.5766 15.4779 14.5597 15.7693 14.4557 16.0154C14.3602 16.2408 14.1747 16.4441 13.9566 16.5129C13.8129 16.5585 13.6636 16.5362 13.5712 16.4088C13.4442 16.233 13.4955 15.9273 13.6847 15.6734C13.8517 15.4499 14.0932 15.3079 14.3341 15.2165C14.3625 15.2056 14.3683 15.1874 14.3603 15.1633C14.3523 15.1391 14.3414 15.1095 14.3322 15.0845L14.3322 15.0845C14.3263 15.0687 14.3212 15.0547 14.3179 15.0451C14.2957 14.9863 14.2339 14.9768 14.1583 14.985C13.9833 15.0054 13.8254 15.0653 13.6694 15.1489C13.2609 15.3676 13.0562 15.7909 12.9664 16.0174C12.9232 16.1262 12.8863 16.194 12.8385 16.2542C12.7741 16.3351 12.6933 16.4088 12.5455 16.5386C12.5321 16.5505 12.5221 16.5753 12.5334 16.5984C12.5485 16.6297 12.6253 16.7382 12.647 16.7479C12.6711 16.7597 12.699 16.7431 12.7102 16.7352C12.8136 16.6651 12.9374 16.5539 12.9979 16.4786C13.0192 16.4527 13.041 16.4636 13.0522 16.5028C13.1088 16.7044 13.2567 16.869 13.4613 16.9379C13.8358 17.0642 14.2243 16.8814 14.5175 16.5631C14.6439 16.4258 14.7155 16.3218 14.7708 16.2415C14.797 16.2035 14.8195 16.1707 14.8425 16.1423C14.862 16.1182 14.8845 16.0892 14.9098 16.0567C15.0416 15.8874 15.2481 15.6221 15.4867 15.4414C15.591 15.362 15.7144 15.3014 15.7765 15.3416C15.8263 15.3739 15.8424 15.4489 15.7625 15.5942C15.5827 15.9225 15.3505 16.2863 15.1812 16.5514C15.0775 16.714 14.9974 16.8394 14.9677 16.8967C14.9533 16.9229 14.9661 16.9435 14.9933 16.9435C15.1073 16.9429 15.2207 16.943 15.3284 16.943H15.3287L15.4331 16.9431C15.4561 16.9423 15.4663 16.9315 15.4778 16.9153L15.6322 16.6733C15.7992 16.4113 15.9623 16.1553 16.1342 15.8927C16.1468 15.8725 16.1584 15.8879 16.1589 15.8967C16.1637 15.9763 16.183 16.085 16.2303 16.1565C16.3151 16.2885 16.4353 16.3452 16.5687 16.3461C16.6748 16.3477 16.7285 16.3312 16.8429 16.2885C16.936 16.2539 17.0108 16.2086 17.0681 16.1676C17.1016 16.1443 17.1075 16.1833 17.1067 16.1893C17.0552 16.4658 17.1188 16.7934 17.3936 16.9293C17.7225 17.0915 18.0838 16.8635 18.2917 16.6578C18.3121 16.638 18.3339 16.64 18.336 16.6828C18.3408 16.7614 18.3759 16.8546 18.4409 16.9198C18.6151 17.0947 18.9667 17.0254 19.3195 16.7523C19.5461 16.5774 19.7831 16.3304 19.9972 16.0688C20.0053 16.0587 20.011 16.0424 19.9956 16.0259C19.9742 16.0035 19.9464 15.9789 19.9207 15.9562C19.9074 15.9443 19.8946 15.933 19.8835 15.9227C19.8688 15.9101 19.8471 15.9137 19.8347 15.9231C19.7726 15.9822 19.7122 16.0436 19.6511 16.1058L19.6511 16.1058C19.4963 16.2633 19.3369 16.4256 19.1322 16.5667C19.0359 16.6339 18.8824 16.6881 18.8135 16.5948C18.7866 16.5586 18.7896 16.5085 18.8159 16.4428C18.8754 16.2943 19.5659 15.2265 19.9799 14.5864L19.9799 14.5864C20.145 14.3311 20.2661 14.1439 20.2856 14.1101L20.2859 14.1107Z" fill="white"/>
</svg>
