<svg width="30" height="30" viewBox="0 0 30 30" fill="none" xmlns="http://www.w3.org/2000/svg">
<rect width="30" height="30" fill="#22559E"/>
<path fill-rule="evenodd" clip-rule="evenodd" d="M13.1841 11.1075H11.4703V10.3117C11.4703 9.88002 11.4703 8.84088 10.3448 8.84088C9.2329 8.84088 9.2329 9.86351 9.2329 10.3117V10.3117V15.8316C9.2329 16.6961 9.50088 17.3518 10.3448 17.3518C11.1873 17.3518 11.4703 16.7361 11.4703 15.8316V14.0475H10.4877V12.6922H13.1841V18.7977L11.5267 18.7813V18.1834C11.3852 18.4115 10.7173 19.0109 9.75928 19.0094C8.13902 18.9985 7.51367 17.8782 7.51367 16.1684V10.3117C7.51367 9.84984 7.51367 7.29596 10.3173 7.29596C13.1841 7.29596 13.1841 9.5322 13.1841 10.3117V11.1075ZM14.9458 7.52954H17.4816L18.7225 15.7767L19.991 7.52954H22.4991V18.7978H20.8278V10.3117L19.4192 18.7978H17.975L16.6157 10.3117V18.7813H14.9458V7.52954ZM7.50391 20.0912H22.5128V22.5265H7.50391V20.0912Z" fill="white"/>
</svg>
