<svg id="Layer_1" data-name="Layer 1" xmlns="http://www.w3.org/2000/svg" viewBox="0 0 40.65 26.81"><defs><style>.cls-1{fill:#0071c5;}</style></defs><path class="cls-1" d="M45.14,19.21c-1.9-9.3-20-9.89-31.6-2.8v.78c11.63-6,28.12-5.94,29.62,2.62.51,2.84-1.09,5.79-3.94,7.49v2.23c3.43-1.26,7-5.33,5.92-10.32M24,35.49c-8,.74-16.4-.42-17.57-6.7a10.31,10.31,0,0,1,2.7-8.42V19.29C5.75,22.24,3.92,26,5,30.39c1.35,5.67,8.53,8.88,19.5,7.81a39.65,39.65,0,0,0,14-4V31.13A38.19,38.19,0,0,1,24,35.49" transform="translate(-4.68 -11.6)"/><path class="cls-1" d="M37.79,17.86H35.68v9.38a2,2,0,0,0,2.11,2.2ZM12.71,21.28H10.6v6.13a2.06,2.06,0,0,0,2.11,2.21ZM10.6,20.14h2.1v-2H10.6Zm14.72,9.38a2.24,2.24,0,0,1-2.42-2.35V19H25v2.25h1.57V23H25V27a.65.65,0,0,0,.73.74h.84v1.74Zm5.54-6.65a1.62,1.62,0,0,0-1.5.86,2.33,2.33,0,0,0-.2.9h3.22c0-.9-.45-1.76-1.52-1.76m-1.7,3.18A1.74,1.74,0,0,0,31,27.91a2.35,2.35,0,0,0,1.92-.79l1.29,1.23A4.11,4.11,0,0,1,31,29.66c-2,0-3.91-1.08-3.91-4.26,0-2.72,1.67-4.26,3.86-4.26s3.51,1.8,3.51,4.16v.75h-5.3M18.38,23c.61,0,.87.3.87.79v5.77h2.08V23.75a2.29,2.29,0,0,0-2.45-2.47H14.56v8.25h2.09V23Z" transform="translate(-4.68 -11.6)"/></svg>