<svg width="30" height="30" viewBox="0 0 30 30" fill="none" xmlns="http://www.w3.org/2000/svg">
<rect width="30" height="30" fill="#C8202F"/>
<path fill-rule="evenodd" clip-rule="evenodd" d="M23.0307 13.0451C22.6049 13.3164 22.0694 13.8257 21.5145 14.4702C21.4315 13.7414 21.3414 12.9826 21.2858 12.1156C21.1587 10.089 21.151 8.39704 21.4865 7.53117C21.6852 7.01487 21.4946 6.91393 21.151 7.06255C19.7133 7.67673 17.6058 9.46603 17.5635 12.3411C17.5492 13.3448 17.7859 14.236 18.1661 14.9614C17.6566 15.4061 17.0384 15.3385 16.5593 15.4302C16.3243 14.6461 16.1154 13.7314 15.3051 13.2869C13.9721 12.2993 12.2519 13.2896 10.9147 14.1787C10.8414 13.5379 10.7674 12.869 10.7192 12.1156C10.592 10.089 10.5835 8.39704 10.9193 7.53117C11.1183 7.01487 10.9279 6.91393 10.5835 7.06255C9.14637 7.67683 7.0387 9.46613 6.99672 12.3411C6.96592 14.4906 8.07505 16.1323 9.31786 16.7062C9.28086 16.7685 9.23989 16.8289 9.20096 16.8891C8.28974 18.4002 8.04435 19.1999 7.80842 20.101C7.46656 21.4205 7.57167 22.8324 8.41874 23.0109C9.57677 23.257 10.7683 21.2106 11.0314 19.2384C11.2459 17.6088 11.1579 16.3603 11.0165 15.063C11.032 15.0428 11.0537 15.0148 11.0685 14.9972C11.1887 14.849 11.3029 14.6962 11.411 14.539C11.9445 14.0321 12.5488 13.7216 13.1098 13.4701C13.7634 13.3129 14.4431 13.444 14.9395 13.8622C15.1743 14.1497 15.5144 14.4889 15.3832 14.8549C14.8607 14.7243 14.4431 14.3847 13.8677 14.4106C13.3188 14.3584 12.7702 14.4374 12.4828 14.9338C12.2999 15.3255 12.613 15.6912 12.8746 15.9786C13.6066 16.8151 15.8014 15.561 15.9321 17.0505C16.2983 16.9194 16.272 16.3967 16.4289 16.0568C17.0769 15.8029 17.6845 15.7119 18.535 15.5549C18.9227 16.0821 19.3928 16.479 19.8847 16.7064C19.848 16.7686 19.8074 16.829 19.768 16.8892C18.8563 18.4003 18.6117 19.2 18.3754 20.1011C18.0338 21.4206 18.1392 22.8325 18.9862 23.011C20.1435 23.2571 21.3353 21.2107 21.5985 19.2385C21.8133 17.6089 21.725 16.3604 21.5835 15.0631C21.5987 15.0429 21.62 15.0149 21.6355 14.9973C22.1571 14.3503 22.8788 13.7011 23.1266 13.4441C23.3206 13.2383 23.3892 12.8163 23.0307 13.0451ZM10.2573 20.0941C10.0661 22.0823 9.15491 22.2606 8.75755 22.1141C8.28964 21.9406 8.16248 20.502 8.88411 18.6781C9.22841 17.8067 9.66338 17.0272 10.0656 16.3967C10.2299 17.7529 10.3564 19.0599 10.2573 20.0941ZM10.4897 7.7856C10.2264 8.38678 9.70058 9.52193 9.63593 11.425C9.59182 12.6751 9.79248 14.2011 9.98064 15.7069C9.82338 15.9289 9.67039 16.1585 9.51812 16.3911C8.63516 15.7757 8.19561 14.4701 8.13442 12.4559C8.03846 9.44071 9.50673 7.9641 10.315 7.5823C10.5121 7.48847 10.6159 7.49986 10.4897 7.7856ZM15.1743 15.7436C14.8088 15.874 14.1814 15.7954 13.8158 15.5609C13.7112 15.4562 13.4236 15.2468 13.6067 15.0378C14.2075 14.6978 14.7303 15.0639 15.1743 15.5609V15.7436ZM20.8241 20.0941C20.6331 22.0823 19.722 22.2606 19.325 22.1141C18.8563 21.9406 18.7294 20.502 19.4506 18.6781C19.7958 17.8067 20.2299 17.0272 20.6327 16.3967C20.7968 17.7529 20.9237 19.0599 20.8241 20.0941ZM21.0562 7.7856C20.7929 8.38678 20.2676 9.52193 20.2025 11.425C20.159 12.6751 20.3592 14.2011 20.5478 15.7069C20.3891 15.9319 20.2348 16.16 20.0851 16.3911C19.2022 15.7757 18.7624 14.4701 18.7013 12.4559C18.6057 9.44071 20.0738 7.9641 20.8821 7.5823C21.0793 7.48847 21.1828 7.49986 21.0562 7.7856Z" fill="white"/>
</svg>
