<svg width="30" height="30" viewBox="0 0 30 30" fill="none" xmlns="http://www.w3.org/2000/svg">
<g clip-path="url(#clip0_1_7513)">
<path fill-rule="evenodd" clip-rule="evenodd" d="M0 15V30H15H30V15V0H15H0V15Z" fill="white"/>
<path d="M7.65023 16.6463C7.65023 17.3211 7.80737 17.839 8.01277 18.1524C8.28205 18.5629 8.68371 18.7368 9.09319 18.7368C9.62137 18.7368 10.1045 18.6133 11.0356 17.3996C11.7816 16.427 12.6605 15.0616 13.2518 14.2056L14.2534 12.7553C14.9491 11.7483 15.7544 10.6286 16.6777 9.86972C17.4314 9.25036 18.2445 8.90625 19.0628 8.90625C20.4367 8.90625 21.7453 9.65653 22.7468 11.0637C23.843 12.6049 24.375 14.546 24.375 16.5492C24.375 17.7401 24.1259 18.6151 23.7021 19.3064C23.2927 19.9749 22.4946 20.6429 21.152 20.6429V18.7368C22.3015 18.7368 22.5884 17.7413 22.5884 16.6021C22.5884 14.9786 22.1868 13.1769 21.302 11.8896C20.674 10.9764 19.8603 10.4185 18.9651 10.4185C17.9967 10.4185 17.2176 11.1068 16.3418 12.3338C15.8764 12.9858 15.3984 13.7803 14.8617 14.6768L14.271 15.6631C13.0843 17.6461 12.7838 18.0977 12.1904 18.8431C11.1503 20.1483 10.2622 20.6429 9.09319 20.6429C7.70631 20.6429 6.82931 20.077 6.28616 19.2241C5.84278 18.5291 5.625 17.6172 5.625 16.5781L7.65023 16.6463Z" fill="#0081FB"/>
<path d="M7.22192 11.1983C8.15042 9.84947 9.49033 8.90625 11.0272 8.90625C11.9172 8.90625 12.802 9.1545 13.726 9.8655C14.7367 10.6428 15.8139 11.9227 17.1577 14.0323L17.6395 14.7893C18.8028 16.6156 19.4646 17.5552 19.8519 17.9982C20.35 18.5672 20.6989 18.7368 21.1521 18.7368C22.3016 18.7368 22.5885 17.7413 22.5885 16.6021L24.3751 16.5492C24.3751 17.7401 24.126 18.6151 23.7022 19.3064C23.2927 19.9749 22.4946 20.6429 21.1521 20.6429C20.3174 20.6429 19.578 20.4721 18.7604 19.7452C18.1318 19.1873 17.397 18.196 16.8317 17.305L15.15 14.6578C14.3064 13.3293 13.5324 12.3388 13.0844 11.8902C12.6025 11.4078 11.9831 10.8253 10.9946 10.8253C10.1946 10.8253 9.51517 11.3543 8.94657 12.1636L7.22192 11.1983Z" fill="url(#paint0_linear_1_7513)"/>
<path d="M10.9945 10.8253C10.1945 10.8253 9.51506 11.3543 8.94649 12.1636C8.14252 13.3072 7.65023 15.0106 7.65023 16.6463C7.65023 17.3211 7.80737 17.839 8.01277 18.1524L6.28616 19.2241C5.84278 18.5291 5.625 17.6172 5.625 16.5781C5.625 14.6886 6.17532 12.7192 7.22184 11.1983C8.15034 9.84947 9.49031 8.90625 11.0272 8.90625L10.9945 10.8253Z" fill="url(#paint1_linear_1_7513)"/>
</g>
<defs>
<linearGradient id="paint0_linear_1_7513" x1="9.60255" y1="16.0957" x2="22.5087" y2="16.7874" gradientUnits="userSpaceOnUse">
<stop stop-color="#0064E1"/>
<stop offset="0.4" stop-color="#0064E1"/>
<stop offset="0.83" stop-color="#0073EE"/>
<stop offset="1" stop-color="#0082FB"/>
</linearGradient>
<linearGradient id="paint1_linear_1_7513" x1="8.55917" y1="17.4476" x2="8.55917" y2="12.9619" gradientUnits="userSpaceOnUse">
<stop stop-color="#0082FB"/>
<stop offset="1" stop-color="#0064E0"/>
</linearGradient>
<clipPath id="clip0_1_7513">
<rect width="30" height="30" fill="white"/>
</clipPath>
</defs>
</svg>
