<svg id="Layer_2" data-name="Layer 2" xmlns="http://www.w3.org/2000/svg" viewBox="0 0 49.92 42.7"><defs><style>.cls-1{fill:#0090ba;fill-rule:evenodd;}</style></defs><path class="cls-1" d="M38,3.65,26.85,34.25a2.14,2.14,0,0,1-1.78,1.39v0H36.83a2.15,2.15,0,0,0,2-1.4L49.94,3.68H38ZM24.12,35.2a2.1,2.1,0,0,0,1.65-.85,4,4,0,0,0,.25-.51l4.09-11.22-2.38-6.55a2,2,0,0,0-1.86-1.24,2.08,2.08,0,0,0-1.65.86,2.64,2.64,0,0,0-.26.5L19.88,27.41,22.29,34A2,2,0,0,0,24.12,35.2Zm-11-20.84H25a2.08,2.08,0,0,0-1.9,1.39L12,46.35H0l11.11-30.6A2.11,2.11,0,0,1,13.13,14.36Z" transform="translate(-0.02 -3.65)"/></svg>