<svg width="30" height="30" viewBox="0 0 30 30" fill="none" xmlns="http://www.w3.org/2000/svg">
<rect width="30" height="30" fill="black"/>
<path d="M8.48553 18.9972C7.94921 18.9739 7.51041 18.8138 7.16731 18.5163C7.10183 18.4595 6.9458 18.2892 6.89346 18.2173C6.75432 18.0264 6.65973 17.8406 6.59664 17.6345C6.4025 17 6.50242 16.1673 6.88244 15.2535C7.20781 14.4712 7.70988 13.6953 8.58582 12.6206C8.71485 12.4625 9.0991 12 9.10157 12C9.10249 12 9.08155 12.0396 9.0552 12.0878C8.82744 12.5041 8.63257 12.9944 8.5264 13.4189C8.35586 14.1 8.37643 14.6845 8.58665 15.1378C8.73166 15.45 8.98026 15.7205 9.25981 15.87C9.74921 16.1317 10.4657 16.1533 11.3407 15.9333C11.401 15.9181 14.3862 15.0534 17.9746 14.0117C21.5631 12.9699 24.4995 12.1182 24.5 12.1189C24.501 12.1199 16.1631 16.013 11.8347 18.0327C11.1493 18.3525 10.9659 18.4333 10.6437 18.5567C9.81992 18.8724 9.08201 19.023 8.48553 18.9972Z" fill="white"/>
</svg>
