<svg id="Layer_2" data-name="Layer 2" xmlns="http://www.w3.org/2000/svg" viewBox="0 0 20.79 33.22"><defs><style>.cls-1{fill:#325190;}.cls-1,.cls-2,.cls-3,.cls-4,.cls-5,.cls-6,.cls-7{fill-rule:evenodd;}.cls-2{fill:#32609e;}.cls-3{fill:#2e6caa;}.cls-4{fill:#3079b7;}.cls-5{fill:#3681be;}.cls-6{fill:#3a87c3;}.cls-7{fill:#3c8dcb;}</style></defs><path class="cls-1" d="M7.55.89H28.34V29.38L7.55,34.11V.89Z" transform="translate(-7.55 -0.89)"/><path class="cls-1" d="M16,19.81a27.22,27.22,0,0,1-8.47,3.1V.89H28.34V4.3A27.07,27.07,0,0,1,16,19.81Z" transform="translate(-7.55 -0.89)"/><path class="cls-1" d="M16,19.81a27.22,27.22,0,0,1-8.47,3.1V.89H28.34V4.3A27.07,27.07,0,0,1,16,19.81Z" transform="translate(-7.55 -0.89)"/><path class="cls-2" d="M14.37,17.06a23.59,23.59,0,0,1-6.82,2.68V.89H26A23.93,23.93,0,0,1,14.37,17.06Z" transform="translate(-7.55 -0.89)"/><path class="cls-3" d="M12.94,14.64A21,21,0,0,1,7.55,16.8V.89H23A21,21,0,0,1,12.94,14.64Z" transform="translate(-7.55 -0.89)"/><path class="cls-4" d="M11.4,11.89a17.77,17.77,0,0,1-3.85,1.66V.89H19.8a17.93,17.93,0,0,1-8.4,11Z" transform="translate(-7.55 -0.89)"/><path class="cls-5" d="M9.86,9.36a15.12,15.12,0,0,1-2.31,1.07V.89h9.17A15,15,0,0,1,9.86,9.36Z" transform="translate(-7.55 -0.89)"/><path class="cls-6" d="M8.54,6.83c-.32.18-.65.35-1,.5V.89h6.13A12,12,0,0,1,8.54,6.83Z" transform="translate(-7.55 -0.89)"/><path class="cls-7" d="M10.16.89A9,9,0,0,1,7.55,3.67V.89Z" transform="translate(-7.55 -0.89)"/></svg>