<svg id="Layer_2" data-name="Layer 2" xmlns="http://www.w3.org/2000/svg" viewBox="0 0 49.95 49.95"><defs><style>.cls-1{fill:#efefef;}.cls-2{fill:#0064ff;}</style></defs><rect class="cls-1" width="49.95" height="49.95"/><path class="cls-2" d="M21,32.7c-.17-.07-.46-.4,0-1.3l1.12-2.34c0-.07-.05-.16-.1-.1l-1,1a16.67,16.67,0,0,0-1.4,2.1l-1.19,2a.13.13,0,0,1,.16.11v0a.11.11,0,0,1,0,.08l-1.09,1.83c-.26.46.22.77.28.67,1.71-2.76,2.71-2.54,2.71-2.54l.57-1.32a.13.13,0,0,0,0-.17h0Zm3.89-23a17.69,17.69,0,0,0-14.24,28.2,3.69,3.69,0,0,0,1.45-1.17l3.29-4.21a.58.58,0,0,1,.27-.2l.49-.22,5.42-6.87.79-.61L24,22.36a.54.54,0,0,1,.15-.15l.7-.51a.49.49,0,0,1,.59,0l.85.6a3.37,3.37,0,0,1,1.07,1.24l3.43,6a.59.59,0,0,0,.26.26,4.51,4.51,0,0,1,2,1.35c.41.44,2.21,2.45,4.73,5.57a3.72,3.72,0,0,0,1.42,1.16A17.68,17.68,0,0,0,24.91,9.69ZM12,28.36,10.83,28l-.71,1v-1.2L9,27.41,10.12,27V25.79l.71,1L12,26.42l-.71,1Zm-.27,3.94-.37,1.15L11,32.3H9.76l1-.7-.37-1.15,1,.71,1-.71-.48,1.15,1,.7Zm.2-9.13.37,1.15-1-.71-1,.71.37-1.15-1-.71h1.2l.38-1.14.37,1.14h1.31Zm2-2.59-.71-1L12.05,20l.71-1-.71-1,1.15.38.71-1v1.21l1.15.37-1.15.46Zm3-4.22-.37,1.14-.37-1.14H14.91l1-.71-.37-1.15,1,.71,1-.71-.38,1.15,1,.71Zm3.81-1.94-.71,1V14.19l-1.17-.4L20,13.41v-1.2l.71,1,1.14-.37-.71,1,.71,1Zm4.81-1.11.38,1.15-1-.67-1,.71.38-1.15-1-.7H24.5l.41-1.19.37,1.15h1.21Zm4.32.88V15.4l-.71-1L28,14.79l.71-1-.71-1,1.14.37.71-1v1.2l1.15.38Zm8,12.22,1.15.37.71-1V27l1.14.37-1.15.44V29L39,28l-1.15.37.71-1ZM33.31,17.5l-.4-1.14H31.72l1-.71-.38-1.15,1,.71,1-.71-.43,1.15,1,.71H33.67Zm2.6,3.08V19.37L34.77,19l1.14-.37V17.42l.71,1L37.77,18l-.71,1,.71,1-1.15-.37Zm2.17,1.88.37-1.14.46,1.14h1.2l-1,.71.37,1.15-1-.71-1,.71.43-1.15-1-.71Zm.83,9.84-.38,1.15-.37-1.15H36.91l1-.7-.37-1.15,1,.71,1-.71-.37,1.15,1,.7Zm-7.54,5.31a1.16,1.16,0,0,0,0-1.09l-.79-2.11c-.1-.27.13-.43.29-.25a20.73,20.73,0,0,1,1.86,2.42l.65,1.21c.63,0,2.36.09,4,.09-.16-.17-.32-.36-.47-.54-2.81-3.55-4.62-5.49-4.64-5.55A3,3,0,0,0,31,30.84l-.2-.09v.53a.09.09,0,0,1-.06.08.08.08,0,0,1-.07,0L26.47,24h0a2.15,2.15,0,0,0-.75-.86l-.42-.36-2,4.6a.44.44,0,0,1,.43.44.25.25,0,0,1,0,.17l-1.82,4.3H23.6a5,5,0,0,1,1.91.38l.45.18a14.23,14.23,0,0,0-1.35,4.23,3.07,3.07,0,0,0,.11.79h3.11L27.68,37A35.48,35.48,0,0,0,31.37,37.61Z" transform="translate(0 -0.05)"/></svg>