<svg id="Layer_2" data-name="Layer 2" xmlns="http://www.w3.org/2000/svg" xmlns:xlink="http://www.w3.org/1999/xlink" viewBox="0 0 50.01 50"><defs><style>.cls-1{fill:none;}.cls-2{fill:#cb1f27;}.cls-3{fill:#fcfcfc;}.cls-4{clip-path:url(#clip-path);}</style><clipPath id="clip-path" transform="translate(0 -0.02)"><rect class="cls-1" y="0.02" width="50" height="50"/></clipPath></defs><rect class="cls-2" y="0.03" width="49.96" height="49.95"/><polygon class="cls-3" points="48.11 25.58 43.68 36.13 17.92 48.98 14.97 47.9 3 29.83 2.17 26.81 0.39 27.03 0.4 25.17 22.49 2.94 41.13 11.2 48.11 25.58"/><g class="cls-4"><path class="cls-2" d="M0,25a25,25,0,0,0,15,22.9,21.9,21.9,0,0,1,.44-5.74l3.22-13.62a9.62,9.62,0,0,1-.8-4c0-3.7,2.15-6.47,4.82-6.47,2.27,0,3.37,1.71,3.37,3.75,0,2.29-1.46,5.71-2.21,8.88a3.87,3.87,0,0,0,3.95,4.81c4.74,0,7.93-6.08,7.93-13.29,0-5.48-3.69-9.58-10.41-9.58a11.83,11.83,0,0,0-12.3,12,7.26,7.26,0,0,0,1.64,4.91A1.19,1.19,0,0,1,15,31c-.12.46-.39,1.57-.51,2a.86.86,0,0,1-1.25.63c-3.49-1.43-5.12-5.25-5.12-9.55,0-7.1,6-15.62,17.87-15.62,9.55,0,15.83,6.91,15.83,14.32,0,9.81-5.45,17.14-13.49,17.14-2.7,0-5.24-1.46-6.11-3.12,0,0-1.45,5.76-1.76,6.87A21.18,21.18,0,0,1,17.92,49,25,25,0,1,0,0,25Z" transform="translate(0 -0.02)"/></g></svg>