<svg id="Layer_1" data-name="Layer 1" xmlns="http://www.w3.org/2000/svg" viewBox="0 0 36.93 36.93"><defs><style>.cls-1{fill:#ff5621;}.cls-2{fill:#05a349;}.cls-3{fill:#08e8ff;}.cls-4{fill:#e21c24;}.cls-5{fill:#468ef6;}.cls-6{fill:#000183;}</style></defs><g id="Layer_1_0" data-name="Layer_1 0"><g id="_348499248" data-name=" 348499248"><path class="cls-1" d="M38.4,38H11.9a18.46,18.46,0,1,1,26.49,0Z" transform="translate(-6.67 -6.66)"/><path class="cls-2" d="M41.32,16.21a26.28,26.28,0,0,0-3.43.2,33.66,33.66,0,0,0-9.13,2.27,33.44,33.44,0,0,1-8.84,2.24h0l-.1,0a34.83,34.83,0,0,1-3.71.21c-1.07,0-2.32-.06-3.7-.21l-.11,0h0A34.4,34.4,0,0,1,7.4,20a18.45,18.45,0,1,0,33.91-3.79Z" transform="translate(-6.67 -6.66)"/><path class="cls-3" d="M42.92,20.08a34.73,34.73,0,0,1-4.58.84h0l-.11,0a34.51,34.51,0,0,1-3.7.21c-1.07,0-2.32-.06-3.71-.21l-.1,0h0a33.77,33.77,0,0,1-8.83-2.24,33.38,33.38,0,0,0-9.13-2.27,27.67,27.67,0,0,0-3.54-.2H9A18.46,18.46,0,1,0,43.6,25.13a18.72,18.72,0,0,0-.7-5.05Z" transform="translate(-6.67 -6.66)"/><path class="cls-4" d="M10.79,13.52l1.52.19a26,26,0,0,0,3.54.2,25.91,25.91,0,0,0,3.53-.2,33.66,33.66,0,0,0,9.13-2.27,33.92,33.92,0,0,1,6.56-1.9,18.46,18.46,0,0,0-24.26,4Z" transform="translate(-6.67 -6.66)"/><path class="cls-5" d="M43.58,24.12h-.79a25.59,25.59,0,0,0-3.52.2,33.72,33.72,0,0,0-9.14,2.27,33.68,33.68,0,0,1-8.84,2.23h0l-.1,0a34.65,34.65,0,0,1-3.7.21,34.69,34.69,0,0,1-3.71-.21l-.1,0h0A34.3,34.3,0,0,1,6.81,27.3,18.46,18.46,0,0,0,43.6,25.13c0-.35,0-.68,0-1Z" transform="translate(-6.67 -6.66)"/><path class="cls-6" d="M39,37.38l-.87.11h0l-.11,0a34.51,34.51,0,0,1-3.7.21c-1.07,0-2.32-.06-3.7-.21l-.11,0h0a34.12,34.12,0,0,1-8.83-2.23A33.29,33.29,0,0,0,12.52,33,25.84,25.84,0,0,0,9,32.79H8.34A18.47,18.47,0,0,0,39,37.38Z" transform="translate(-6.67 -6.66)"/></g></g></svg>