<svg id="Layer_2" data-name="Layer 2" xmlns="http://www.w3.org/2000/svg" viewBox="0 0 49.95 49.95"><defs><style>.cls-1{fill:#0c0c0c;}.cls-2{fill:#fff;}</style></defs><rect class="cls-1" width="49.95" height="49.95"/><path class="cls-2" d="M19.84,28.68a5,5,0,0,1-3.31-1.12,2.69,2.69,0,0,1-1-2,2.78,2.78,0,0,1,1-2.05,5.21,5.21,0,0,1,3.31-1.11,4.77,4.77,0,0,1,3.32,1.12,2.72,2.72,0,0,1,.89,2.05,2.81,2.81,0,0,1-.89,2.05,4.89,4.89,0,0,1-3.32,1.12v-.83a2.51,2.51,0,0,0,1.78-.69,2.17,2.17,0,0,0,.64-1.65,2.25,2.25,0,0,0-.64-1.65,2.66,2.66,0,0,0-3.56,0,2.28,2.28,0,0,0-.63,1.65,2.31,2.31,0,0,0,.65,1.65,2.55,2.55,0,0,0,1.78.69v.83Zm-9.47-6.33a5.56,5.56,0,0,0-2.16.44A1.61,1.61,0,0,0,7,24.26a1.55,1.55,0,0,0,.41,1,2.25,2.25,0,0,0,1.23.61c.34.08,1.07.19,1.79.27a16.33,16.33,0,0,1,1.71.23c.23.05.62.13.62.56a.66.66,0,0,1-.47.59,3.72,3.72,0,0,1-1.43.25,6.2,6.2,0,0,1-1.71-.3,2.08,2.08,0,0,1-.95-.65A1.13,1.13,0,0,1,8,26.24h-.8v2.2H8.1v-.29A.12.12,0,0,1,8.21,28a.08.08,0,0,1,.08,0,6.46,6.46,0,0,0,1.29.41,5.37,5.37,0,0,0,1.32.17,5.71,5.71,0,0,0,1.79-.26,3.38,3.38,0,0,0,1.06-.52,1.48,1.48,0,0,0,.57-1.17,1.63,1.63,0,0,0-.45-1.15,2.27,2.27,0,0,0-.58-.39,4,4,0,0,0-.69-.25c-.46-.1-1.48-.24-2-.29a14.19,14.19,0,0,1-1.72-.22.43.43,0,0,1-.34-.4.55.55,0,0,1,.31-.45,3.3,3.3,0,0,1,1.61-.32,4.71,4.71,0,0,1,1.89.36,2.51,2.51,0,0,1,.45.26,1.33,1.33,0,0,1,.43.74H14V22.68h-.79v.21c0,.08-.07.17-.21.1a6.11,6.11,0,0,0-2.59-.6m17.29.29,3.86,3.48V23.82c0-.31-.05-.43-.4-.43h-.71v-.71h3.29v.7H33c-.34,0-.36.1-.37.43l0,4.55H31.53l-4.45-4v2.84c0,.31,0,.45.33.45h.8v.68H25v-.7h.76c.28,0,.27-.28.27-.47V23.87c0-.21,0-.45-.47-.45h-.62v-.74Zm9.78,4.92h.19a.26.26,0,0,0,.15-.14.38.38,0,0,0,0-.15V26.22l0-.1c0-.09-2-2.3-2.11-2.4a.83.83,0,0,0-.6-.3h-.7v-.74h3.92v.71h-.46c-.1,0-.18.09-.09.21L39,25.18h0l1.35-1.56a.12.12,0,0,0,0-.18.1.1,0,0,0-.1,0h-.48v-.73H43v.71h-.71a.59.59,0,0,0-.55.26c-.1.1-2.08,2.38-2.14,2.43a.2.2,0,0,0,0,.11V27.3a.38.38,0,0,0,0,.15.24.24,0,0,0,.15.13h.92v.78h-3.9v-.7Z" transform="translate(0 -0.05)"/></svg>