<svg id="Layer_2" data-name="Layer 2" xmlns="http://www.w3.org/2000/svg" viewBox="0 0 42.05 43.1"><defs><style>.cls-1{fill:#efefef;}.cls-2{fill:#055ba5;}.cls-3{fill:#010101;}</style></defs><rect class="cls-1" width="42.05" height="43.1"/><path class="cls-2" d="M17.58,32.92H10.94V15.64H6.14V10.17H22.23v5.48H17.56"/><path class="cls-3" d="M35.63,32.93H18.72V27.86l7.54-5.68c1.36-1.17,3-2.53,3-4.47a2.15,2.15,0,0,0-2-2.32h-.21c-2.08,0-2.66,2.14-2.75,3.86l-5.61-1.1a8.44,8.44,0,0,1,8.84-7.75c4.43,0,8.19,2.39,8.2,7.18a7.45,7.45,0,0,1-2.84,5.74l-5.15,3.86-.52.32h8.65"/></svg>