<svg id="Layer_2" data-name="Layer 2" xmlns="http://www.w3.org/2000/svg" viewBox="0 0 49.95 49.95"><defs><style>.cls-1{fill:#efefef;}.cls-2{fill:#e82127;}</style></defs><rect class="cls-1" width="49.95" height="49.95"/><path class="cls-2" d="M25,40l4.22-23.7c4,0,5.28.44,5.47,2.24a9.61,9.61,0,0,0,4.1-3,29.66,29.66,0,0,0-10.64-2.57L25,16.73h0l-3.11-3.79A29.8,29.8,0,0,0,11.26,15.5a9.51,9.51,0,0,0,4.05,3.07c.19-1.8,1.45-2.24,5.44-2.24Z" transform="translate(0 -0.05)"/><path class="cls-2" d="M25,11.83a34.76,34.76,0,0,1,14.22,2.85,12.29,12.29,0,0,0,.85-1.75A41.4,41.4,0,0,0,25,10,41.4,41.4,0,0,0,9.93,12.93a16.6,16.6,0,0,0,.85,1.75A34.59,34.59,0,0,1,25,11.83Z" transform="translate(0 -0.05)"/></svg>