<svg id="Layer_1" data-name="Layer 1" xmlns="http://www.w3.org/2000/svg" viewBox="0 0 31.76 31.73"><defs><style>.cls-1{fill:#703e97;}.cls-2{fill:#f1cb14;}.cls-3,.cls-4{fill:#2a276e;}.cls-4{fill-rule:evenodd;}</style></defs><path id="Layer" class="cls-1" d="M32,31.56s0,0,0,.06c-4.84,8.65-11.8,7.79-13.87,7.26a2.32,2.32,0,0,1-.67-.28,15.88,15.88,0,0,1-5.7-21.31h0a0,0,0,0,1,0,0C10.2,25.47,21,40,32,31.56a0,0,0,0,1,.06,0Z" transform="translate(-9.77 -9.13)"/><path id="Layer-2" data-name="Layer" class="cls-2" d="M28.17,16.24s0,0,0,0c9.92-.15,12.65,6.31,13.23,8.37a2.44,2.44,0,0,1,.1.71A15.89,15.89,0,0,1,25.92,40.87s0,0,0,0a0,0,0,0,1,0-.05c7.88-2.66,15.09-19.3,2.28-24.52,0,0,0,0,0,0Z" transform="translate(-9.77 -9.13)"/><path id="Layer-3" data-name="Layer" class="cls-3" d="M16.8,27.2s0,0-.06,0c-5.08-8.51-.85-14.1.65-15.63a2.48,2.48,0,0,1,.57-.44,15.9,15.9,0,0,1,21.32,5.72,0,0,0,0,1,0,.06,0,0,0,0,1-.05,0C33,11.4,14.93,13.48,16.82,27.17c0,0,0,0,0,0Z" transform="translate(-9.77 -9.13)"/><path id="Layer-4" data-name="Layer" class="cls-4" d="M32.3,21.9a7.32,7.32,0,0,1,0,6.11l0,.1a5.52,5.52,0,0,1-.28.54l-.05.09a7.34,7.34,0,0,1-12.64,0,.41.41,0,0,1,0-.09c-.1-.17-.2-.36-.29-.54l0-.1a7.36,7.36,0,0,1,0-6.11.36.36,0,0,0,0-.09c.1-.19.19-.37.3-.55l.06-.09a7.35,7.35,0,0,1,12.53,0l0,.09a5.86,5.86,0,0,1,.3.55l0,.09Zm-.75-.09H29.09l0,.09a13.47,13.47,0,0,1,.34,2.69h2.88a6.63,6.63,0,0,0-.74-2.69Zm-2.73,3.42H26V28h2.52a13.64,13.64,0,0,0,.33-2.69ZM25.33,28V25.23H22.48v.09A13,13,0,0,0,22.82,28Zm-2.84-3.42h2.84V21.81H22.86s0,.06,0,.09a12.79,12.79,0,0,0-.35,2.69ZM26,21.81v2.78h2.84a12.17,12.17,0,0,0-.35-2.69.29.29,0,0,0,0-.09Zm1.6-3.23h0a0,0,0,0,0,0,0,6.9,6.9,0,0,1,1.37,2.55h2.24A6.72,6.72,0,0,0,27.57,18.58ZM26,18.33s0,0,0,0v2.8h2.28c-.51-1.55-1.31-2.62-2.24-2.84Zm-.67,0v0s0,0,0,0c-.93.22-1.73,1.29-2.24,2.84h2.28Zm-1.56.22s0,0,0,0a6.72,6.72,0,0,0-3.58,2.59H22.4a6.83,6.83,0,0,1,1.36-2.55s0,0,0,0Zm-4.81,6h2.88a13.5,13.5,0,0,1,.36-2.69l0-.09H19.76l-.05.09A6.65,6.65,0,0,0,19,24.59Zm0,.73A6.64,6.64,0,0,0,19.66,28h2.51a13.64,13.64,0,0,1-.33-2.69v-.09H19v.09ZM20,28.65a6.72,6.72,0,0,0,3.71,2.78h0a0,0,0,0,0,0,0,6.93,6.93,0,0,1-1.4-2.64l0-.09Zm5.31,0H23c.5,1.64,1.33,2.79,2.3,3h0s0,0,0,0Zm.67,3c1-.23,1.8-1.37,2.3-3H26v3h0a0,0,0,0,0,.05,0Zm5.27-3H29l0,.09a6.93,6.93,0,0,1-1.4,2.64s0,0,0,0,0,0,0,0a6.72,6.72,0,0,0,3.71-2.78Zm1.07-3.33v-.09H29.48v.09A13.66,13.66,0,0,1,29.14,28h2.51a6.67,6.67,0,0,0,.7-2.69Z" transform="translate(-9.77 -9.13)"/></svg>