<svg id="Layer_1" data-name="Layer 1" xmlns="http://www.w3.org/2000/svg" viewBox="0 0 38.02 38.02"><defs><style>.cls-1{fill:#fff;}.cls-1,.cls-2{fill-rule:evenodd;}</style></defs><path class="cls-1" d="M6,44V6H44V44" transform="translate(-5.99 -5.99)"/><path class="cls-2" d="M35.81,18.84c.36-2-1-3.61-2.55-4.76a22.5,22.5,0,0,0-7.21-3.32V37.4c1.13-1,2.26-2.09,3.34-3.22,2.31-2.55,4.45-5.15,5.34-8.27a3.79,3.79,0,0,0-1-4A5,5,0,0,0,35.81,18.84Zm-4.4,9.21a17.35,17.35,0,0,1-3.15,4l0-7.62a5.79,5.79,0,0,1,2.84-1.28,1.43,1.43,0,0,1,1.11.48C33.14,25.14,32,26.72,31.41,28.05Zm2.19-9.81c-.22,1.2-1.54,1.9-2.48,2.4a25.32,25.32,0,0,1-2.89,1.23V14.08a14.32,14.32,0,0,1,4.19,2.14c.6.5,1.42,1.13,1.18,2Zm-9.53,19V10.66l-2.14,1.11V26c-.09.41.2,1-.26,1.23a.22.22,0,0,1-.26-.12,50.76,50.76,0,0,1-1.47-10.8l-.07-3.24-2.05,1.51v.87a61.63,61.63,0,0,0,1,10l-.81.92A7.7,7.7,0,0,1,17.29,25a29.08,29.08,0,0,1-1.56-8.85L14,17.52c.17,4.71,1.06,9.16,3.92,12.69.55-.62,1.11-1.27,1.66-1.87A24.89,24.89,0,0,0,20.71,32a13.25,13.25,0,0,0,3.36,5.17Z" transform="translate(-5.99 -5.99)"/><path class="cls-2" d="M40.45,14.15l-3.2-.79-.58-2.17-3.27-.77-.67-2.35L25,6.31,17.44,8.07l-.68,2.35-3.27.77c-.21.75-.4,1.47-.6,2.19l-3.19.77a31,31,0,0,0,5,18.13c2.48,3.82,6.2,7.86,10.29,9.86a24.8,24.8,0,0,0,7.43-6,31.07,31.07,0,0,0,8-22ZM31,34.73a21.63,21.63,0,0,1-5.94,5.05A20.69,20.69,0,0,1,19.43,35c-4.37-5.12-7.28-10.84-7.76-17.55a13,13,0,0,1-.05-1.66l2.72-.62L15,13l3.34-.79,0-.07.6-2.31L25,8.38,31.24,9.8l.6,2.35,3.39.82.58,2.24,2.74.62c-.07,7.31-3,13.44-7.53,18.9Z" transform="translate(-5.99 -5.99)"/></svg>