<svg width="50" height="34" viewBox="0 0 50 34" fill="none" xmlns="http://www.w3.org/2000/svg">
<path d="M49.1378 33.3462H0.862108C0.386034 33.3462 0 32.9609 0 32.4858V1.51421C0 1.0391 0.386034 0.653847 0.862108 0.653847H49.1379C49.614 0.653847 50 1.0391 50 1.51421V32.4858C49.9999 32.961 49.6139 33.3462 49.1378 33.3462Z" fill="#41479B"/>
<path d="M24.1378 0.653847H22.6403L14.655 5.8751V0.653847H10.3447V5.8751L2.35937 0.653847H0.862106C0.386034 0.653847 0 1.039 0 1.51411V2.19652L6.85105 6.67601H0V10.9776H6.85105L0 15.4572V16.1396C0 16.6147 0.386034 17 0.862106 17H2.35956L10.3449 11.7788V17H14.6552V11.7788L22.6404 17H24.1379C24.614 17 25 16.6147 25 16.1396V15.4572L18.149 10.9777H24.9999V6.67611H18.1489L24.9999 2.19662V1.51421C24.9999 1.039 24.6139 0.653847 24.1378 0.653847Z" fill="#F5F5F5"/>
<path d="M25 7.53647H13.7931V0.653847H11.2069V7.53647H0V10.1174H11.2069V17H13.7931V10.1174H25V7.53647Z" fill="#FF4B55"/>
<path d="M9.61539 6.42308L0.416588 0.653847C0.171804 0.803481 0 1.05501 0 1.35561V1.39943L8.00983 6.42308H9.61539Z" fill="#FF4B55"/>
<path d="M16.0628 6.42308L25 1.06717C24.8447 0.824516 24.5706 0.653847 24.243 0.653847H24.05L14.4231 6.42308H16.0628Z" fill="#FF4B55"/>
<path d="M8.93447 11.2308L0 16.5764C0.154065 16.8249 0.432821 17 0.765667 17H0.934318L10.5769 11.2308H8.93447Z" fill="#FF4B55"/>
<path d="M25 16.311L16.9613 11.2308H15.3846L24.5132 17C24.7866 16.8764 24.9742 16.6175 25 16.311Z" fill="#FF4B55"/>
<path d="M12.6816 21.9457L13.3191 24.1016L15.362 23.268C15.5363 23.1968 15.6948 23.4005 15.5884 23.5587L14.3404 25.4134L16.2503 26.5298C16.4132 26.6251 16.3567 26.879 16.1695 26.8924L13.9758 27.0493L14.3146 29.2751C14.3435 29.465 14.1144 29.578 13.9876 29.4364L12.5 27.7773L11.0124 29.4364C10.8856 29.5779 10.6565 29.4649 10.6854 29.2751L11.0242 27.0493L8.83046 26.8924C8.64332 26.879 8.58677 26.6251 8.74971 26.5298L10.6596 25.4134L9.41159 23.5587C9.3052 23.4005 9.46364 23.1968 9.63796 23.268L11.6809 24.1016L12.3184 21.9457C12.373 21.7617 12.6272 21.7617 12.6816 21.9457Z" fill="#F5F5F5"/>
<path d="M38.5525 6.49207L38.8712 7.56998L39.8926 7.15326C39.9796 7.11775 40.059 7.21947 40.0057 7.29862L39.3818 8.22606L40.3367 8.78432C40.4182 8.83187 40.3899 8.95887 40.2962 8.96549L39.1995 9.04394L39.3688 10.1568C39.3833 10.2518 39.2687 10.3082 39.2053 10.2374L38.4615 9.40789L37.7178 10.2374C37.6543 10.3081 37.5399 10.2517 37.5543 10.1568L37.7236 9.04394L36.6268 8.96549C36.5332 8.95887 36.5049 8.83187 36.5864 8.78432L37.5412 8.22606L36.9174 7.29862C36.8641 7.21947 36.9434 7.11775 37.0305 7.15326L38.0518 7.56998L38.3706 6.49207C38.3982 6.40008 38.5254 6.40008 38.5525 6.49207Z" fill="#F5F5F5"/>
<path d="M30.8602 14.1844L31.1789 15.2623L32.2003 14.8456C32.2873 14.8101 32.3666 14.9118 32.3134 14.9909L31.6895 15.9184L32.6444 16.4766C32.7258 16.5242 32.6975 16.6512 32.6039 16.6578L31.5072 16.7363L31.6765 17.8491C31.691 17.9441 31.5764 18.0006 31.5129 17.9297L30.7692 17.1002L30.0255 17.9297C29.962 18.0005 29.8475 17.944 29.8619 17.8491L30.0313 16.7363L28.9345 16.6578C28.8409 16.6512 28.8126 16.5242 28.8941 16.4766L29.8489 15.9184L29.225 14.9909C29.1718 14.9118 29.2511 14.8101 29.3381 14.8456L30.3595 15.2623L30.6782 14.1844C30.7059 14.0924 30.833 14.0924 30.8602 14.1844Z" fill="#F5F5F5"/>
<path d="M45.2832 11.2998L45.602 12.3777L46.6234 11.961C46.7104 11.9254 46.7897 12.0272 46.7365 12.1063L46.1126 13.0337L47.0675 13.592C47.1489 13.6396 47.1206 13.7666 47.027 13.7732L45.9302 13.8516L46.0995 14.9645C46.114 15.0595 45.9995 15.1159 45.9361 15.0451L45.1924 14.2156L44.4486 15.0451C44.3851 15.1158 44.2707 15.0594 44.2851 14.9645L44.4544 13.8516L43.3576 13.7732C43.264 13.7666 43.2357 13.6396 43.3172 13.592L44.272 13.0337L43.6481 12.1063C43.5949 12.0272 43.6742 11.9254 43.7613 11.961L44.7826 12.3777L45.1014 11.2998C45.1289 11.2078 45.256 11.2078 45.2832 11.2998Z" fill="#F5F5F5"/>
<path d="M38.5525 24.7613L38.8712 25.8392L39.8926 25.4224C39.9796 25.3869 40.059 25.4886 40.0057 25.5678L39.3818 26.4952L40.3367 27.0535C40.4182 27.1011 40.3899 27.2281 40.2962 27.2347L39.1995 27.3131L39.3688 28.426C39.3833 28.521 39.2687 28.5775 39.2053 28.5066L38.4615 27.6771L37.7178 28.5066C37.6543 28.5774 37.5399 28.5209 37.5543 28.426L37.7236 27.3131L36.6268 27.2347C36.5332 27.2281 36.5049 27.1011 36.5864 27.0535L37.5412 26.4952L36.9174 25.5678C36.8641 25.4886 36.9434 25.3869 37.0305 25.4224L38.0518 25.8392L38.3706 24.7613C38.3982 24.6693 38.5254 24.6693 38.5525 24.7613Z" fill="#F5F5F5"/>
<path d="M40.7486 16.1266L40.4594 17.0342L39.5455 17.0417C39.4272 17.0427 39.3781 17.2007 39.4734 17.2742L40.2086 17.8426L39.9328 18.7547C39.8972 18.8729 40.0256 18.9705 40.1218 18.8985L40.8654 18.3421L41.609 18.8985C41.7053 18.9705 41.8336 18.8727 41.798 18.7547L41.5223 17.8426L42.2574 17.2742C42.3527 17.2006 42.3036 17.0427 42.1853 17.0417L41.2714 17.0342L40.9823 16.1266C40.9447 16.0091 40.786 16.0091 40.7486 16.1266Z" fill="#F5F5F5"/>
</svg>
