<svg width="51" height="34" viewBox="0 0 51 34" fill="none" xmlns="http://www.w3.org/2000/svg">
<path d="M49.3005 33.5394H1.02477C0.548693 33.5394 0.162659 33.1534 0.162659 32.6773V1.64288C0.162659 1.16681 0.548693 0.780777 1.02477 0.780777H49.3006C49.7766 0.780777 50.1627 1.16681 50.1627 1.64288V32.6773C50.1626 33.1535 49.7765 33.5394 49.3005 33.5394Z" fill="#73AF00"/>
<path d="M24.7144 5.36407L6.5449 16.4237C5.99305 16.7596 5.99305 17.5605 6.5449 17.8965L24.7144 28.9562C24.9897 29.1238 25.3355 29.1238 25.6109 28.9562L43.7805 17.8966C44.3323 17.5607 44.3323 16.7598 43.7805 16.4238L25.6109 5.36407C25.3356 5.19649 24.9897 5.19649 24.7144 5.36407Z" fill="#FFE15A"/>
<path d="M25.1627 24.0566C28.9715 24.0566 32.0592 20.969 32.0592 17.1602C32.0592 13.3513 28.9715 10.2637 25.1627 10.2637C21.3539 10.2637 18.2662 13.3513 18.2662 17.1602C18.2662 20.969 21.3539 24.0566 25.1627 24.0566Z" fill="#41479B"/>
<path d="M19.2446 13.6321C18.9192 14.1769 18.6679 14.7689 18.5019 15.3975C22.3251 15.1098 27.9806 16.1793 31.5802 19.6722C31.8152 19.0725 31.9703 18.4336 32.0285 17.7657C28.3116 14.6375 23.173 13.5251 19.2446 13.6321Z" fill="#F5F5F5"/>
<path d="M25.4479 19.5136L25.6314 20.0642L26.2118 20.0687C26.2869 20.0693 26.3181 20.1652 26.2577 20.2098L25.7908 20.5546L25.9659 21.1079C25.9886 21.1796 25.9069 21.2389 25.8459 21.1951L25.3737 20.8576L24.9016 21.1951C24.8404 21.2389 24.7589 21.1796 24.7816 21.1079L24.9566 20.5546L24.4898 20.2098C24.4293 20.1652 24.4605 20.0693 24.5356 20.0687L25.1159 20.0642L25.2995 19.5136C25.3232 19.4423 25.424 19.4423 25.4479 19.5136Z" fill="#F5F5F5"/>
<path d="M27.7037 20.9379L27.7827 21.1748L28.0325 21.1768C28.0648 21.177 28.0783 21.2183 28.0522 21.2375L27.8512 21.3859L27.9265 21.624C27.9363 21.6549 27.9012 21.6804 27.8749 21.6615L27.6716 21.5163L27.4684 21.6615C27.4422 21.6804 27.407 21.6549 27.4168 21.624L27.4921 21.3859L27.2911 21.2375C27.2651 21.2184 27.2785 21.1771 27.3108 21.1768L27.5606 21.1748L27.6396 20.9379C27.65 20.9072 27.6934 20.9072 27.7037 20.9379Z" fill="#F5F5F5"/>
<path d="M24.4727 18.4677L24.5517 18.7046L24.8015 18.7065C24.8338 18.7067 24.8473 18.748 24.8212 18.7673L24.6203 18.9156L24.6955 19.1538C24.7053 19.1847 24.6702 19.2101 24.6439 19.1913L24.4407 19.0461L24.2374 19.1913C24.2112 19.2101 24.176 19.1847 24.1858 19.1538L24.2611 18.9156L24.0601 18.7673C24.0341 18.7481 24.0475 18.7068 24.0798 18.7065L24.3296 18.7046L24.4086 18.4677C24.419 18.437 24.4624 18.437 24.4727 18.4677Z" fill="#F5F5F5"/>
<path d="M20.0971 18.1804L20.1761 18.4173L20.4259 18.4192C20.4582 18.4194 20.4717 18.4607 20.4456 18.48L20.2446 18.6283L20.3199 18.8665C20.3297 18.8974 20.2946 18.9229 20.2682 18.904L20.065 18.7588L19.8618 18.904C19.8355 18.9229 19.8004 18.8974 19.8101 18.8665L19.8854 18.6283L19.6845 18.48C19.6585 18.4608 19.6719 18.4195 19.7042 18.4192L19.954 18.4173L20.033 18.1804C20.0434 18.1497 20.0868 18.1497 20.0971 18.1804Z" fill="#F5F5F5"/>
<path d="M23.7575 20.8561L23.8365 21.093L24.0863 21.0949C24.1186 21.0951 24.1321 21.1364 24.106 21.1557L23.905 21.304L23.9803 21.5422C23.9901 21.573 23.955 21.5985 23.9287 21.5797L23.7254 21.4345L23.5222 21.5797C23.496 21.5985 23.4608 21.573 23.4706 21.5422L23.5459 21.304L23.3449 21.1557C23.3189 21.1365 23.3323 21.0952 23.3646 21.0949L23.6144 21.093L23.6934 20.8561C23.7039 20.8255 23.7473 20.8255 23.7575 20.8561Z" fill="#F5F5F5"/>
<path d="M21.7434 18.0151L21.808 18.2088L22.0123 18.2105C22.0387 18.2107 22.0497 18.2445 22.0286 18.2602L21.8642 18.3815L21.9258 18.5762C21.9338 18.6014 21.9051 18.6223 21.8835 18.6069L21.7173 18.4881L21.5511 18.6069C21.5295 18.6223 21.5009 18.6014 21.5088 18.5762L21.5704 18.3815L21.4061 18.2602C21.3849 18.2445 21.3957 18.2107 21.4223 18.2105L21.6266 18.2088L21.6912 18.0151C21.6996 17.99 21.735 17.99 21.7434 18.0151Z" fill="#F5F5F5"/>
<path d="M27.879 14.015L27.9599 14.2573L28.2153 14.2593C28.2484 14.2595 28.2621 14.3018 28.2354 14.3214L28.03 14.4732L28.107 14.7168C28.1171 14.7484 28.081 14.7744 28.0542 14.7552L27.8463 14.6066L27.6384 14.7552C27.6114 14.7745 27.5756 14.7483 27.5855 14.7168L27.6626 14.4732L27.4571 14.3214C27.4305 14.3018 27.4442 14.2596 27.4772 14.2593L27.7327 14.2573L27.8136 14.015C27.8241 13.9835 27.8685 13.9835 27.879 14.015Z" fill="#F5F5F5"/>
<path d="M20.3785 16.8297L20.4431 17.0235L20.6474 17.0251C20.6738 17.0253 20.6848 17.0591 20.6637 17.0748L20.4993 17.1961L20.5609 17.3908C20.5689 17.416 20.5402 17.4369 20.5186 17.4215L20.3524 17.3028L20.1862 17.4215C20.1646 17.4369 20.136 17.416 20.1439 17.3908L20.2055 17.1961L20.0412 17.0748C20.02 17.0591 20.0308 17.0254 20.0574 17.0251L20.2617 17.0235L20.3263 16.8297C20.3347 16.8046 20.3701 16.8046 20.3785 16.8297Z" fill="#F5F5F5"/>
<path d="M21.3647 19.5606L21.4626 19.8541L21.7719 19.8565C21.812 19.8567 21.8286 19.9078 21.7963 19.9316L21.5474 20.1154L21.6408 20.4104C21.6529 20.4485 21.6094 20.4802 21.5768 20.4568L21.3251 20.277L21.0733 20.4568C21.0408 20.4801 20.9972 20.4485 21.0093 20.4104L21.1027 20.1154L20.8538 19.9316C20.8215 19.9078 20.8381 19.8567 20.8782 19.8565L21.1876 19.8541L21.2854 19.5606C21.2984 19.5227 21.3521 19.5227 21.3647 19.5606Z" fill="#F5F5F5"/>
<path d="M28.9617 20.9994L29.0232 21.1841L29.2178 21.1856C29.243 21.1857 29.2534 21.2179 29.2332 21.2328L29.0767 21.3484L29.1354 21.534C29.143 21.558 29.1157 21.5778 29.0951 21.5632L28.9368 21.45L28.7784 21.5632C28.7578 21.5778 28.7305 21.558 28.738 21.534L28.7967 21.3484L28.6402 21.2328C28.62 21.2179 28.6304 21.1857 28.6556 21.1856L28.8502 21.1841L28.9118 20.9994C28.9199 20.9755 28.9537 20.9755 28.9617 20.9994Z" fill="#F5F5F5"/>
<path d="M29.6425 19.5902L29.7215 19.8271L29.9713 19.8291C30.0036 19.8293 30.0171 19.8706 29.991 19.8898L29.79 20.0382L29.8653 20.2764C29.8751 20.3072 29.84 20.3327 29.8137 20.3139L29.6105 20.1686L29.4072 20.3139C29.381 20.3327 29.3458 20.3072 29.3556 20.2764L29.4309 20.0382L29.2299 19.8898C29.2039 19.8707 29.2173 19.8294 29.2496 19.8291L29.4994 19.8271L29.5784 19.5902C29.5888 19.5595 29.6322 19.5595 29.6425 19.5902Z" fill="#F5F5F5"/>
</svg>
