<svg width="51" height="33" viewBox="0 0 51 33" fill="none" xmlns="http://www.w3.org/2000/svg">
<path d="M49.3005 32.8324H1.02477C0.548693 32.8324 0.162659 32.4464 0.162659 31.9703V0.935899C0.162659 0.459825 0.548693 0.0737915 1.02477 0.0737915H49.3006C49.7766 0.0737915 50.1627 0.459825 50.1627 0.935899V31.9703C50.1626 32.4465 49.7765 32.8324 49.3005 32.8324Z" fill="#F5F5F5"/>
<path d="M38.9562 0.0742493H11.3703V32.833H38.9562V0.0742493Z" fill="#F5F5F5"/>
<path d="M1.02477 0.0740051C0.548693 0.0740051 0.162659 0.459942 0.162659 0.936015V31.9704C0.162659 32.4465 0.548693 32.8325 1.02477 32.8325H11.3696V0.0740051H1.02477Z" fill="#FF4B55"/>
<path d="M49.3011 0.0739441H38.9563V32.8325H49.3011C49.7772 32.8325 50.1632 32.4464 50.1632 31.9704V0.935954C50.1632 0.45988 49.7772 0.0739441 49.3011 0.0739441Z" fill="#FF4B55"/>
<path d="M30.3946 20.2384L35.5101 17.3153L34.3363 16.7284C34.0071 16.5638 33.8186 16.2083 33.8674 15.8433L34.2493 12.9799L32.0836 13.6099C31.6052 13.7492 31.1087 13.4549 31.0011 12.9684L30.7936 12.0309L28.7601 14.4108C28.4782 14.7407 27.9412 14.4888 28.0147 14.061L28.8832 9.01142L27.5536 9.37509C27.1652 9.48134 26.7551 9.30459 26.5657 8.94931L25.1656 6.3252V6.32129L25.1646 6.32324L25.1636 6.32129V6.3252L23.7635 8.94931C23.5739 9.30449 23.1638 9.48125 22.7754 9.37509L21.4457 9.01142L22.3142 14.061C22.3877 14.4886 21.8506 14.7406 21.5687 14.4108L19.5352 12.0309L19.3277 12.9684C19.2201 13.455 18.7236 13.7491 18.2452 13.6099L16.0795 12.9799L16.4614 15.8433C16.5102 16.2082 16.3217 16.5638 15.9925 16.7284L14.8187 17.3153L19.9342 20.2385C20.4641 20.5413 20.6963 21.1835 20.4825 21.7551L20.0452 22.9247L24.4285 22.5505C24.6711 22.5298 24.8775 22.7251 24.8704 22.9683L24.7323 27.6601H25.5944L25.4562 22.9681C25.4491 22.7248 25.6556 22.5296 25.8981 22.5503L30.2835 22.9247L29.8462 21.7551C29.6326 21.1834 29.8647 20.5411 30.3946 20.2384Z" fill="#FF4B55"/>
</svg>
