<svg width="51" height="34" viewBox="0 0 51 34" fill="none" xmlns="http://www.w3.org/2000/svg">
<path d="M49.6502 33.5538H1.37456C0.898486 33.5538 0.512451 33.1678 0.512451 32.6917V1.6573C0.512451 1.18123 0.898486 0.795197 1.37456 0.795197H49.6503C50.1264 0.795197 50.5125 1.18123 50.5125 1.6573V32.6917C50.5124 33.1679 50.1263 33.5538 49.6502 33.5538Z" fill="#FF4B55"/>
<path d="M34.9949 13.7263H28.9605V7.69188C28.9605 7.21581 28.5744 6.82977 28.0984 6.82977H22.9259C22.4498 6.82977 22.0638 7.21581 22.0638 7.69188V13.7263H16.0293C15.5533 13.7263 15.1672 14.1124 15.1672 14.5884V19.7609C15.1672 20.237 15.5533 20.623 16.0293 20.623H22.0638V26.6575C22.0638 27.1335 22.4498 27.5196 22.9259 27.5196H28.0984C28.5744 27.5196 28.9605 27.1335 28.9605 26.6575V20.6228H34.9949C35.471 20.6228 35.857 20.2368 35.857 19.7607V14.5883C35.857 14.1123 35.471 13.7263 34.9949 13.7263Z" fill="#F5F5F5"/>
</svg>
