<svg width="51" height="34" viewBox="0 0 51 34" fill="none" xmlns="http://www.w3.org/2000/svg">
<path d="M49.5796 33.2608H1.30388C0.827807 33.2608 0.441772 32.8747 0.441772 32.3987V1.36424C0.441772 0.88817 0.827807 0.502136 1.30388 0.502136H49.5797C50.0557 0.502136 50.4418 0.88817 50.4418 1.36424V32.3987C50.4417 32.8748 50.0556 33.2608 49.5796 33.2608Z" fill="#FF4B55"/>
<path d="M8.74268 5.62498L9.56455 8.08923L12.1622 8.10935C12.4985 8.11188 12.638 8.54118 12.3674 8.74089L10.2777 10.284L11.0612 12.7607C11.1626 13.0814 10.7976 13.3465 10.5239 13.151L8.41065 11.6404L6.29737 13.1509C6.02374 13.3465 5.6587 13.0812 5.76007 12.7606L6.54356 10.2839L4.45392 8.74089C4.18331 8.54108 4.32276 8.11188 4.65909 8.10935L7.25674 8.08923L8.07862 5.62498C8.18506 5.30584 8.63633 5.30584 8.74268 5.62498Z" fill="#FFE15A"/>
<path d="M18.1754 6.2322L18.7648 7.03591L19.7158 6.73844C19.839 6.69997 19.9403 6.8404 19.8649 6.94499L19.2826 7.75368L19.8594 8.56627C19.9341 8.67145 19.8319 8.81119 19.709 8.77184L18.7599 8.46803L18.1653 9.26774C18.0883 9.37125 17.9238 9.31715 17.9233 9.18824L17.9189 8.19167L16.9745 7.87321C16.8524 7.8319 16.8529 7.65885 16.9754 7.61842L17.9217 7.30631L17.9328 6.30983C17.9342 6.18102 18.0991 6.12819 18.1754 6.2322Z" fill="#FFE15A"/>
<path d="M14.5874 3.83671L15.5781 3.94432L16.0008 3.04188C16.0555 2.92509 16.2274 2.94511 16.2538 3.07138L16.4575 4.04676L17.4464 4.16981C17.5744 4.18573 17.6085 4.35546 17.4965 4.41962L16.6317 4.91473L16.8203 5.89325C16.8447 6.02 16.6938 6.10477 16.5982 6.01815L15.86 5.34872L14.9878 5.83036C14.8749 5.89276 14.7474 5.77537 14.8004 5.6577L15.2089 4.74872L14.4811 4.06786C14.387 3.98016 14.4592 3.82284 14.5874 3.83671Z" fill="#FFE15A"/>
<path d="M16.1536 13.4942L15.5642 14.2979L14.6132 14.0005C14.49 13.962 14.3887 14.1024 14.4641 14.207L15.0464 15.0157L14.4696 15.8283C14.3949 15.9335 14.4971 16.0732 14.62 16.0339L15.5691 15.73L16.1637 16.5297C16.2407 16.6333 16.4052 16.5792 16.4057 16.4503L16.4101 15.4537L17.3545 15.1352C17.4767 15.0939 17.4761 14.9209 17.3536 14.8804L16.4073 14.5683L16.3962 13.5718C16.3946 13.4431 16.2298 13.3901 16.1536 13.4942Z" fill="#FFE15A"/>
<path d="M19.7416 11.2431L18.7508 11.3508L18.3282 10.4483C18.2734 10.3315 18.1015 10.3515 18.0751 10.4778L17.8713 11.4532L16.8825 11.5762C16.7544 11.5922 16.7204 11.7619 16.8324 11.826L17.6971 12.3212L17.5085 13.2997C17.4841 13.4264 17.635 13.5112 17.7306 13.4246L18.4688 12.7551L19.3411 13.2368C19.454 13.2992 19.5814 13.1818 19.5285 13.0641L19.12 12.1552L19.8477 11.4743C19.9421 11.3866 19.87 11.2293 19.7416 11.2431Z" fill="#FFE15A"/>
</svg>
