<svg width="50" height="34" viewBox="0 0 50 34" fill="none" xmlns="http://www.w3.org/2000/svg">
<path d="M49.1378 33.275H0.862108C0.386034 33.275 0 32.889 0 32.4129V1.37846C0 0.902391 0.386034 0.516357 0.862108 0.516357H49.1379C49.614 0.516357 50 0.902391 50 1.37846V32.4129C49.9999 32.8891 49.6139 33.275 49.1378 33.275Z" fill="#41479B"/>
<path d="M25.3503 4.26726L25.696 5.30368L26.7884 5.31218C26.9299 5.31325 26.9885 5.49372 26.8748 5.57781L25.9959 6.22683L26.3254 7.26843C26.368 7.40319 26.2145 7.51491 26.0994 7.43259L25.2106 6.79724L24.3218 7.43259C24.2068 7.51481 24.0532 7.40329 24.0959 7.26843L24.4254 6.22683L23.5465 5.57781C23.4327 5.49372 23.4913 5.31325 23.6328 5.31218L24.7253 5.30368L25.071 4.26726C25.1156 4.13308 25.3055 4.13308 25.3503 4.26726Z" fill="#FFE15A"/>
<path d="M25.3503 26.5194L25.696 27.5558L26.7884 27.5643C26.9299 27.5654 26.9885 27.7459 26.8748 27.8299L25.9959 28.479L26.3254 29.5206C26.368 29.6553 26.2145 29.767 26.0994 29.6847L25.2106 29.0494L24.3218 29.6847C24.2068 29.7669 24.0532 29.6554 24.0959 29.5206L24.4254 28.479L23.5465 27.8299C23.4327 27.7459 23.4913 27.5654 23.6328 27.5643L24.7253 27.5558L25.071 26.5194C25.1156 26.3852 25.3055 26.3852 25.3503 26.5194Z" fill="#FFE15A"/>
<path d="M36.4763 15.3933L36.822 16.4297L37.9145 16.4382C38.056 16.4393 38.1146 16.6198 38.0008 16.7038L37.1219 17.3529L37.4514 18.3945C37.4941 18.5292 37.3406 18.6409 37.2254 18.5586L36.3367 17.9233L35.4479 18.5586C35.3329 18.6408 35.1792 18.5293 35.2219 18.3945L35.5514 17.3529L34.6725 16.7038C34.5587 16.6198 34.6173 16.4393 34.7588 16.4382L35.8513 16.4297L36.197 15.3933C36.2416 15.2591 36.4316 15.2591 36.4763 15.3933Z" fill="#FFE15A"/>
<path d="M14.224 15.3933L14.5697 16.4297L15.6621 16.4382C15.8036 16.4393 15.8622 16.6198 15.7485 16.7038L14.8696 17.3529L15.199 18.3945C15.2417 18.5292 15.0882 18.6409 14.9731 18.5586L14.0843 17.9233L13.1955 18.5586C13.0805 18.6408 12.9269 18.5293 12.9696 18.3945L13.2991 17.3529L12.4201 16.7038C12.3064 16.6198 12.365 16.4393 12.5065 16.4382L13.599 16.4297L13.9447 15.3933C13.9894 15.2591 14.1793 15.2591 14.224 15.3933Z" fill="#FFE15A"/>
<path d="M15.8944 9.58318L16.2401 10.6196L17.3326 10.6281C17.4741 10.6292 17.5327 10.8096 17.4189 10.8937L16.54 11.5427L16.8695 12.5843C16.9122 12.7191 16.7586 12.8308 16.6435 12.7485L15.7547 12.1132L14.866 12.7485C14.7509 12.8307 14.5973 12.7192 14.64 12.5843L14.9695 11.5427L14.0906 10.8937C13.9768 10.8096 14.0354 10.6292 14.1769 10.6281L15.2694 10.6196L15.6151 9.58318C15.6598 9.449 15.8496 9.449 15.8944 9.58318Z" fill="#FFE15A"/>
<path d="M35.165 20.7092L35.5107 21.7456L36.6032 21.7541C36.7447 21.7552 36.8033 21.9357 36.6895 22.0198L35.8106 22.6688L36.1401 23.7104C36.1828 23.8452 36.0293 23.9569 35.9141 23.8745L35.0254 23.2392L34.1366 23.8745C34.0216 23.9568 33.868 23.8452 33.9106 23.7104L34.2401 22.6688L33.3612 22.0198C33.2474 21.9357 33.306 21.7552 33.4475 21.7541L34.54 21.7456L34.8857 20.7092C34.9305 20.575 35.1203 20.575 35.165 20.7092Z" fill="#FFE15A"/>
<path d="M31.0929 5.51073L31.4386 6.54715L32.5311 6.55565C32.6726 6.55672 32.7312 6.73719 32.6174 6.82127L31.7385 7.47029L32.068 8.51189C32.1107 8.64666 31.9572 8.75838 31.842 8.67605L30.9533 8.0407L30.0645 8.67605C29.9494 8.75828 29.7958 8.64676 29.8385 8.51189L30.168 7.47029L29.2891 6.82127C29.1753 6.73719 29.2339 6.55672 29.3754 6.55565L30.4679 6.54715L30.8136 5.51073C30.8582 5.37655 31.048 5.37655 31.0929 5.51073Z" fill="#FFE15A"/>
<path d="M19.9666 24.7817L20.3123 25.8181L21.4048 25.8266C21.5463 25.8277 21.6049 26.0081 21.4911 26.0922L20.6122 26.7412L20.9417 27.7828C20.9844 27.9176 20.8308 28.0293 20.7157 27.947L19.8269 27.3116L18.9382 27.947C18.8231 28.0292 18.6695 27.9177 18.7122 27.7828L19.0417 26.7412L18.1628 26.0922C18.049 26.0081 18.1076 25.8277 18.2491 25.8266L19.3416 25.8181L19.6873 24.7817C19.732 24.6475 19.9218 24.6475 19.9666 24.7817Z" fill="#FFE15A"/>
<path d="M34.8857 9.58318L34.54 10.6196L33.4475 10.6281C33.306 10.6292 33.2474 10.8096 33.3612 10.8937L34.2401 11.5427L33.9106 12.5843C33.868 12.7191 34.0215 12.8308 34.1366 12.7485L35.0254 12.1132L35.9141 12.7485C36.0292 12.8307 36.1828 12.7192 36.1401 12.5843L35.8106 11.5427L36.6895 10.8937C36.8033 10.8096 36.7447 10.6292 36.6032 10.6281L35.5107 10.6196L35.165 9.58318C35.1203 9.449 34.9305 9.449 34.8857 9.58318Z" fill="#FFE15A"/>
<path d="M15.6151 20.7092L15.2694 21.7456L14.1769 21.7541C14.0354 21.7552 13.9768 21.9357 14.0906 22.0198L14.9695 22.6688L14.64 23.7104C14.5973 23.8452 14.7508 23.9569 14.866 23.8745L15.7547 23.2392L16.6435 23.8745C16.7585 23.9568 16.9122 23.8452 16.8695 23.7104L16.54 22.6688L17.4189 22.0198C17.5327 21.9357 17.4741 21.7552 17.3326 21.7541L16.2401 21.7456L15.8944 20.7092C15.8496 20.575 15.6598 20.575 15.6151 20.7092Z" fill="#FFE15A"/>
<path d="M19.6873 5.51073L19.3416 6.54715L18.2491 6.55565C18.1076 6.55672 18.049 6.73719 18.1628 6.82127L19.0417 7.47029L18.7122 8.51189C18.6695 8.64666 18.823 8.75838 18.9382 8.67605L19.8269 8.0407L20.7157 8.67605C20.8307 8.75828 20.9844 8.64676 20.9417 8.51189L20.6122 7.47029L21.4911 6.82127C21.6049 6.73719 21.5463 6.55672 21.4048 6.55565L20.3123 6.54715L19.9666 5.51073C19.9218 5.37655 19.732 5.37655 19.6873 5.51073Z" fill="#FFE15A"/>
<path d="M30.8133 24.7817L30.4676 25.8181L29.3752 25.8266C29.2337 25.8277 29.1751 26.0081 29.2888 26.0922L30.1677 26.7412L29.8382 27.7828C29.7956 27.9176 29.9491 28.0293 30.0642 27.947L30.953 27.3116L31.8418 27.947C31.9568 28.0292 32.1104 27.9177 32.0677 27.7828L31.7382 26.7412L32.6171 26.0922C32.7309 26.0081 32.6723 25.8277 32.5308 25.8266L31.4383 25.8181L31.0926 24.7817C31.0478 24.6475 30.8581 24.6475 30.8133 24.7817Z" fill="#FFE15A"/>
</svg>
