<svg width="51" height="34" viewBox="0 0 51 34" fill="none" xmlns="http://www.w3.org/2000/svg">
<path d="M49.6501 33.4097H1.37456C0.898485 33.4097 0.512451 33.0237 0.512451 32.5476V1.51323C0.512451 1.03716 0.898485 0.651123 1.37456 0.651123H49.6502C50.1263 0.651123 50.5123 1.03716 50.5123 1.51323V32.5476C50.5123 33.0237 50.1262 33.4097 49.6501 33.4097Z" fill="#41479B"/>
<path d="M50.5123 1.51323C50.5123 1.03716 50.1262 0.651123 49.6501 0.651123H45.7932L29.8226 11.1147V0.651123H21.2019V11.1147L5.23138 0.651123H1.37456C0.898485 0.651123 0.512451 1.03716 0.512451 1.51323V3.74281L14.2144 12.72H0.512451V21.3407H14.2144L0.512451 30.318V32.5476C0.512451 33.0237 0.898485 33.4097 1.37456 33.4097H5.23148L21.2021 22.9462V33.4097H29.8228V22.9462L45.7934 33.4097H49.6503C50.1264 33.4097 50.5124 33.0237 50.5124 32.5476V30.318L36.8105 21.3408H50.5123V12.7201H36.8103L50.5123 3.74281V1.51323Z" fill="#F5F5F5"/>
<path d="M50.5123 14.4442H28.0986V0.651123H22.9261V14.4442H0.512451V19.6166H22.9261V33.4097H28.0986V19.6166H50.5123V14.4442Z" fill="#FF4B55"/>
<path d="M17.988 21.3408L0.537109 32.6686C0.598144 33.0849 0.941405 33.4098 1.3747 33.4098H2.5621L21.1548 21.3409H17.988V21.3408Z" fill="#FF4B55"/>
<path d="M34.3399 21.3408H31.1731L49.7388 33.3919C50.1715 33.3458 50.513 32.9925 50.513 32.5476V31.8388L34.3399 21.3408Z" fill="#FF4B55"/>
<path d="M0.513184 2.46497L16.3119 12.7202H19.4786L1.01543 0.735291C0.720507 0.872302 0.513184 1.16673 0.513184 1.51331V2.46497Z" fill="#FF4B55"/>
<path d="M32.9903 12.7203L50.4831 1.36513C50.4104 0.962596 50.0745 0.651367 49.651 0.651367H48.4159L29.8235 12.7203H32.9903Z" fill="#FF4B55"/>
</svg>
