<svg width="51" height="34" viewBox="0 0 51 34" fill="none" xmlns="http://www.w3.org/2000/svg">
<path d="M50.4693 11.4073H0.46936V1.34982C0.46936 0.873751 0.855395 0.487717 1.33147 0.487717H49.6073C50.0833 0.487717 50.4694 0.873751 50.4694 1.34982L50.4693 11.4073Z" fill="#FAB446"/>
<path d="M49.6072 33.2463H1.33147C0.855395 33.2463 0.46936 32.8603 0.46936 32.3842V22.3268H50.4693V32.3842C50.4693 32.8604 50.0832 33.2463 49.6072 33.2463Z" fill="#73AF00"/>
<path d="M50.4693 11.4071H0.46936V22.3261H50.4693V11.4071Z" fill="#F5F5F5"/>
<path d="M25.4692 21.5007C22.9141 21.5007 20.8356 19.4221 20.8356 16.8671C20.8356 14.312 22.9141 12.2335 25.4692 12.2335C28.0242 12.2335 30.1027 14.312 30.1027 16.8671C30.1027 19.4221 28.0242 21.5007 25.4692 21.5007ZM25.4692 13.0955C23.3893 13.0955 21.6976 14.7872 21.6976 16.8671C21.6976 18.947 23.3893 20.6387 25.4692 20.6387C27.549 20.6387 29.2407 18.947 29.2407 16.8671C29.2407 14.7872 27.549 13.0955 25.4692 13.0955Z" fill="#41479B"/>
<path d="M25.4693 17.3925C25.7594 17.3925 25.9946 17.1573 25.9946 16.8672C25.9946 16.5771 25.7594 16.3419 25.4693 16.3419C25.1792 16.3419 24.944 16.5771 24.944 16.8672C24.944 17.1573 25.1792 17.3925 25.4693 17.3925Z" fill="#41479B"/>
<path d="M25.4696 16.946L24.1347 17.0808L21.2671 16.946V16.7884L24.1347 16.6536L25.4696 16.7884V16.946Z" fill="#41479B"/>
<path d="M25.4696 16.946L26.8046 17.0808L29.6721 16.946V16.7884L26.8046 16.6536L25.4696 16.7884V16.946Z" fill="#41479B"/>
<path d="M25.3905 16.8672L25.2557 15.5322L25.3905 12.6646H25.5481L25.6829 15.5322L25.5481 16.8672H25.3905Z" fill="#41479B"/>
<path d="M25.3905 16.8672L25.2557 18.2021L25.3905 21.0697H25.5481L25.6829 18.2021L25.5481 16.8672H25.3905Z" fill="#41479B"/>
<path d="M25.4138 16.9228L24.3746 16.0743L22.4421 13.9513L22.5536 13.8398L24.6766 15.7723L25.5251 16.8115L25.4138 16.9228Z" fill="#41479B"/>
<path d="M25.4139 16.9228L26.2625 17.9621L28.3855 19.8945L28.4969 19.7831L26.5645 17.66L25.5253 16.8115L25.4139 16.9228Z" fill="#41479B"/>
<path d="M25.4139 16.8115L26.2625 15.7723L28.3855 13.8398L28.4969 13.9513L26.5645 16.0743L25.5253 16.9228L25.4139 16.8115Z" fill="#41479B"/>
<path d="M25.4138 16.8115L24.3746 17.66L22.4421 19.7831L22.5536 19.8945L24.6766 17.9621L25.5251 16.9228L25.4138 16.8115Z" fill="#41479B"/>
<path d="M25.4995 16.94L24.3176 17.5754L21.6169 18.5482L21.5565 18.4026L24.1543 17.1808L25.4391 16.7943L25.4995 16.94Z" fill="#41479B"/>
<path d="M25.4993 16.94L26.7842 16.5536L29.3819 15.3317L29.3216 15.1861L26.6208 16.159L25.439 16.7943L25.4993 16.94Z" fill="#41479B"/>
<path d="M25.3963 16.8974L24.7609 15.7155L23.7881 13.0147L23.9337 12.9544L25.1556 15.5521L25.542 16.837L25.3963 16.8974Z" fill="#41479B"/>
<path d="M25.3964 16.8973L25.7828 18.1822L27.0047 20.78L27.1503 20.7196L26.1774 18.0188L25.5421 16.837L25.3964 16.8973Z" fill="#41479B"/>
<path d="M25.4391 16.94L24.1543 16.5536L21.5565 15.3317L21.6169 15.1861L24.3176 16.159L25.4995 16.7943L25.4391 16.94Z" fill="#41479B"/>
<path d="M25.439 16.94L26.6208 17.5754L29.3216 18.5482L29.3819 18.4026L26.7842 17.1808L25.4993 16.7943L25.439 16.94Z" fill="#41479B"/>
<path d="M25.3964 16.837L25.7828 15.5521L27.0047 12.9544L27.1503 13.0147L26.1774 15.7155L25.5421 16.8974L25.3964 16.837Z" fill="#41479B"/>
<path d="M25.3963 16.837L24.7609 18.0188L23.7881 20.7196L23.9337 20.78L25.1556 18.1822L25.542 16.8973L25.3963 16.837Z" fill="#41479B"/>
<path d="M25.4695 17.5757C25.8608 17.5757 26.1781 17.2584 26.1781 16.8671C26.1781 16.4757 25.8608 16.1585 25.4695 16.1585C25.0781 16.1585 24.7609 16.4757 24.7609 16.8671C24.7609 17.2584 25.0781 17.5757 25.4695 17.5757Z" fill="#F5F5F5"/>
<path d="M25.4695 17.292C25.7041 17.292 25.8944 17.1017 25.8944 16.8671C25.8944 16.6324 25.7041 16.4422 25.4695 16.4422C25.2348 16.4422 25.0446 16.6324 25.0446 16.8671C25.0446 17.1017 25.2348 17.292 25.4695 17.292Z" fill="#41479B"/>
</svg>
