<svg width="51" height="34" viewBox="0 0 51 34" fill="none" xmlns="http://www.w3.org/2000/svg">
<path d="M17.5649 33.5535H1.7603C1.28423 33.5535 0.898193 33.1675 0.898193 32.6914V1.65694C0.898193 1.18087 1.28423 0.79483 1.7603 0.79483H17.5649V33.5535Z" fill="#73AF00"/>
<path d="M34.2322 0.795319H17.5652V33.5541H34.2322V0.795319Z" fill="#F5F5F5"/>
<path d="M50.0362 33.5536H34.2316V0.794952H50.0362C50.5122 0.794952 50.8983 1.18099 50.8983 1.65706V32.6915C50.8983 33.1677 50.5122 33.5536 50.0362 33.5536Z" fill="#FF4B55"/>
<path d="M27.385 17.9453L25.8982 18.6889V19.4323H26.6417L27.385 17.9453Z" fill="#FFD250"/>
<path d="M25.8968 21.2908C25.6913 21.2908 25.525 21.1245 25.525 20.9191V19.4322C25.525 19.2268 25.6913 19.0605 25.8968 19.0605C26.1023 19.0605 26.2686 19.2268 26.2686 19.4322V20.9191C26.2686 21.1245 26.1023 21.2908 25.8968 21.2908Z" fill="#00C3A0"/>
<path d="M25.8968 19.804C24.4367 19.804 23.0268 19.2406 21.9266 18.2177C21.7763 18.0779 21.7676 17.8427 21.9073 17.6925C22.0481 17.5426 22.2831 17.5346 22.4325 17.6731C23.3948 18.568 24.6251 19.0605 25.8967 19.0605C27.1682 19.0605 28.3985 18.568 29.3608 17.6731C29.5107 17.5342 29.7456 17.5418 29.886 17.6925C30.0258 17.8428 30.0171 18.078 29.8667 18.2177C28.7667 19.2407 27.3568 19.804 25.8968 19.804Z" fill="#00C3A0"/>
<path d="M25.8982 21.2908C24.9452 21.2908 24.0222 21.0124 23.2286 20.4854L23.6403 19.866C24.982 20.7575 26.8144 20.7575 28.156 19.866L28.5676 20.4854C27.7741 21.0125 26.8511 21.2908 25.8982 21.2908Z" fill="#00AADC"/>
<path d="M25.3095 16.2726L24.4887 17.5428L24.3492 17.9609L26.4866 17.4653L25.3095 16.2726Z" fill="#732D37"/>
<path d="M23.6232 18.3694C22.6406 18.3694 21.4611 17.5425 21.1482 15.6999L21.8815 15.5758C22.1415 17.108 23.084 17.6271 23.65 17.6257C23.8236 17.6209 24.0046 17.561 24.0189 17.4384C24.0356 17.2917 24.0396 17.2569 23.6508 17.1255C23.4395 17.0539 23.1999 16.9731 23.0319 16.7807C22.3519 16.0042 23.2725 15.1824 23.7148 14.7875C23.7928 14.7178 23.8251 14.6586 23.8168 14.6361C23.7925 14.5726 23.6466 14.4765 23.4822 14.4765C23.0099 14.4765 22.6516 14.2097 22.5475 13.7806C22.4393 13.3362 22.6437 12.868 23.0329 12.6669L23.3742 13.3275C23.283 13.3747 23.2468 13.509 23.27 13.6049C23.2791 13.6434 23.3012 13.733 23.4824 13.733C23.9375 13.733 24.3707 14.0017 24.5115 14.3712C24.5717 14.5287 24.6624 14.9382 24.2102 15.3422C23.7219 15.7782 23.4297 16.1064 23.5916 16.2911C23.6283 16.3328 23.7855 16.3862 23.8893 16.4211C24.224 16.5344 24.8469 16.7449 24.7577 17.5235C24.7017 18.0132 24.2647 18.3529 23.6708 18.369C23.6548 18.369 23.6388 18.3694 23.6232 18.3694Z" fill="#AAD264"/>
<path d="M26.6417 14.2282C26.6417 14.2282 27.3851 12.7414 25.8982 11.998C25.8982 11.998 31.1022 11.2545 30.3587 17.9454L30.3584 17.9451C29.8706 17.5548 29.1461 16.8414 28.8874 16.2727L26.6417 14.9716V14.2282Z" fill="#874150"/>
<path d="M25.8982 15.7151L29.6153 17.9453C29.6153 17.9453 29.6153 17.9453 28.1285 18.6888L25.8982 16.4586V15.7151Z" fill="#732D37"/>
<path d="M24.4113 13.4848C24.8218 13.4848 25.1547 13.8177 25.1547 14.2282L25.1539 14.229C24.7104 14.6726 24.6005 15.35 24.881 15.9111L25.0489 16.2471C25.119 16.3871 25.2112 16.5151 25.3219 16.6258L27.3851 18.689V17.6615C27.3851 16.3816 27.0871 15.1192 26.5147 13.9743C26.1368 13.2188 25.3646 12.7414 24.5198 12.7414H24.4114V13.485H24.4113V13.4848V13.4848Z" fill="#783C46"/>
<path d="M24.4117 12.7413L23.6682 13.4848V14.2282C23.6682 14.2282 24.5526 13.7799 24.8506 13.637C25.0589 13.5372 25.021 13.3012 24.9015 13.1874C24.8084 13.0989 24.4117 12.7413 24.4117 12.7413Z" fill="#FFD250"/>
<path d="M25.8982 22.7777C22.4138 22.7777 19.5791 19.943 19.5791 16.4585H20.3226C20.3226 19.5332 22.8236 22.0343 25.8983 22.0343C28.973 22.0343 31.4741 19.5332 31.4741 16.4585H32.2176C32.2174 19.943 29.3827 22.7777 25.8982 22.7777Z" fill="#AAD264"/>
<path d="M20.3646 19.1691C20.6432 19.1691 20.8691 18.9432 20.8691 18.6646C20.8691 18.386 20.6432 18.1601 20.3646 18.1601C20.086 18.1601 19.8601 18.386 19.8601 18.6646C19.8601 18.9432 20.086 19.1691 20.3646 19.1691Z" fill="#FFE15A"/>
<path d="M21.4795 20.9502C21.7581 20.9502 21.984 20.7244 21.984 20.4457C21.984 20.1671 21.7581 19.9413 21.4795 19.9413C21.2008 19.9413 20.975 20.1671 20.975 20.4457C20.975 20.7244 21.2008 20.9502 21.4795 20.9502Z" fill="#FFE15A"/>
<path d="M23.2912 22.297C23.5699 22.297 23.7957 22.0711 23.7957 21.7925C23.7957 21.5139 23.5699 21.288 23.2912 21.288C23.0126 21.288 22.7867 21.5139 22.7867 21.7925C22.7867 22.0711 23.0126 22.297 23.2912 22.297Z" fill="#FFE15A"/>
<path d="M31.489 19.1691C31.7676 19.1691 31.9935 18.9432 31.9935 18.6646C31.9935 18.386 31.7676 18.1601 31.489 18.1601C31.2104 18.1601 30.9845 18.386 30.9845 18.6646C30.9845 18.9432 31.2104 19.1691 31.489 19.1691Z" fill="#FFE15A"/>
<path d="M30.3724 20.9502C30.651 20.9502 30.8769 20.7244 30.8769 20.4457C30.8769 20.1671 30.651 19.9413 30.3724 19.9413C30.0938 19.9413 29.8679 20.1671 29.8679 20.4457C29.8679 20.7244 30.0938 20.9502 30.3724 20.9502Z" fill="#FFE15A"/>
<path d="M28.5608 22.297C28.8394 22.297 29.0653 22.0711 29.0653 21.7925C29.0653 21.5139 28.8394 21.288 28.5608 21.288C28.2821 21.288 28.0563 21.5139 28.0563 21.7925C28.0563 22.0711 28.2821 22.297 28.5608 22.297Z" fill="#FFE15A"/>
<path d="M26.2701 21.6625H25.5267C25.1161 21.6625 24.7832 21.3296 24.7832 20.9191C24.7832 20.5085 25.1161 20.1756 25.5267 20.1756H26.2701C26.6807 20.1756 27.0136 20.5085 27.0136 20.9191C27.0136 21.3297 26.6807 21.6625 26.2701 21.6625Z" fill="#FFB478"/>
<path d="M28.8874 16.2726C29.1353 17.0005 29.6619 17.6665 30.3584 17.945L30.3587 17.9453C31.1022 11.2546 25.8982 11.998 25.8982 11.998C29.6153 11.998 28.8874 16.2726 28.8874 16.2726Z" fill="#9B4B5A"/>
</svg>
