<svg width="51" height="34" viewBox="0 0 51 34" fill="none" xmlns="http://www.w3.org/2000/svg">
<path d="M49.4817 33.6835H1.20598C0.729906 33.6835 0.343872 33.2975 0.343872 32.8214V1.78697C0.343872 1.3109 0.729906 0.924864 1.20598 0.924864H49.4818C49.9578 0.924864 50.3439 1.3109 50.3439 1.78697V32.8214C50.3438 33.2976 49.9577 33.6835 49.4817 33.6835Z" fill="#FF4B55"/>
<path d="M50.3438 12.9939H22.7576V0.92498H14.1369V12.9939H0.343872V21.6146H14.1369V33.6835H22.7576V21.6146H50.3438V12.9939Z" fill="#F5F5F5"/>
<path d="M50.3438 14.718H21.0335V0.92498H15.8611V14.718H0.343872V19.8905H15.8611V33.6835H21.0335V19.8905H50.3438V14.718Z" fill="#41479B"/>
</svg>
