<svg width="51" height="33" viewBox="0 0 51 33" fill="none" xmlns="http://www.w3.org/2000/svg">
<path d="M0.661841 32.7684L25.3439 16.5975L0.661841 0.42659C0.471899 0.584695 0.343872 0.813796 0.343872 1.0802V32.1147C0.343872 32.3812 0.471899 32.6103 0.661841 32.7684Z" fill="#F5F5F5"/>
<path d="M0.661133 32.7684C0.810547 32.8928 0.995605 32.9768 1.20518 32.9768H49.4811C49.9571 32.9768 50.3432 32.5907 50.3432 32.1147V16.5975H25.3432L0.661133 32.7684Z" fill="#FF4B55"/>
<path d="M0.661133 0.426592C0.810547 0.302178 0.995605 0.218193 1.20518 0.218193H49.4811C49.9571 0.218193 50.3432 0.604228 50.3432 1.0803V16.5975H25.3432L0.661133 0.426592Z" fill="#41479B"/>
<path d="M9.39734 19.3992C10.9447 19.3992 12.1991 18.1448 12.1991 16.5974C12.1991 15.05 10.9447 13.7957 9.39734 13.7957C7.84997 13.7957 6.59558 15.05 6.59558 16.5974C6.59558 18.1448 7.84997 19.3992 9.39734 19.3992Z" fill="#FFE15A"/>
<path d="M9.39749 16.5974L8.3468 12.3949L9.39749 10.994L10.4481 12.3949L9.39749 16.5974Z" fill="#FFE15A"/>
<path d="M9.39749 16.5974L10.4481 20.8L9.39749 22.2008L8.3468 20.8L9.39749 16.5974Z" fill="#FFE15A"/>
<path d="M9.39722 16.5974L5.19458 17.6481L3.7937 16.5974L5.19458 15.5467L9.39722 16.5974Z" fill="#FFE15A"/>
<path d="M9.39746 16.5974L13.6 15.5467L15.0009 16.5974L13.6 17.6481L9.39746 16.5974Z" fill="#FFE15A"/>
<path d="M9.39746 16.5974L11.6262 12.8829L13.3597 12.6351L13.112 14.3686L9.39746 16.5974Z" fill="#FFE15A"/>
<path d="M9.39761 16.5974L7.1688 20.312L5.4353 20.5597L5.68306 18.8262L9.39761 16.5974Z" fill="#FFE15A"/>
<path d="M9.39761 16.5974L5.68306 14.3686L5.4353 12.6351L7.1688 12.8829L9.39761 16.5974Z" fill="#FFE15A"/>
<path d="M9.39746 16.5974L13.112 18.8262L13.3597 20.5597L11.6262 20.312L9.39746 16.5974Z" fill="#FFE15A"/>
<path d="M2.65579 4.45816L2.80189 5.54801L1.8179 6.03902C1.69056 6.1026 1.71732 6.29176 1.85745 6.31734L2.93909 6.51519L3.10198 7.60269C3.12308 7.74351 3.31126 7.77643 3.37894 7.65103L3.9014 6.68346L4.98597 6.86451C5.1264 6.88805 5.21585 6.7191 5.11761 6.61617L4.35882 5.82027L4.86614 4.84468C4.93187 4.71841 4.79886 4.58111 4.67054 4.64273L3.67913 5.11851L2.90814 4.33443C2.80853 4.23306 2.63694 4.31715 2.65579 4.45816Z" fill="#FFE15A"/>
<path d="M3.09008 25.6703L2.90551 26.7544L1.82016 26.9306C1.67963 26.9535 1.64906 27.1421 1.77514 27.2081L2.74906 27.7185L2.58139 28.8052C2.55971 28.946 2.72953 29.0333 2.83139 28.9338L3.61781 28.1652L4.59965 28.6606C4.7268 28.7248 4.86234 28.5901 4.79926 28.4626L4.31137 27.4771L5.08578 26.6966C5.18598 26.5955 5.10004 26.425 4.95902 26.4456L3.87094 26.605L3.36781 25.6272C3.30268 25.5007 3.11381 25.5298 3.09008 25.6703Z" fill="#FFE15A"/>
<path d="M20.144 14.9915L19.5111 15.8907L18.4554 15.5831C18.3188 15.5432 18.21 15.7004 18.2954 15.8142L18.955 16.694L18.3362 17.603C18.2561 17.7207 18.3718 17.8726 18.5066 17.8266L19.5471 17.4712L20.2204 18.3406C20.3076 18.4532 20.4878 18.3899 20.4857 18.2476L20.4691 17.1482L21.504 16.7765C21.638 16.7284 21.6336 16.5374 21.4976 16.4955L20.4467 16.1714L20.4131 15.0723C20.409 14.9298 20.2259 14.875 20.144 14.9915Z" fill="#FFE15A"/>
</svg>
