<svg width="51" height="34" viewBox="0 0 51 34" fill="none" xmlns="http://www.w3.org/2000/svg">
<path d="M50.5124 17.3185H0.512451V1.80129C0.512451 1.32521 0.898486 0.939178 1.37456 0.939178H49.6503C50.1264 0.939178 50.5125 1.32521 50.5125 1.80129L50.5124 17.3185Z" fill="#FF4B55"/>
<path d="M0.512939 17.3186H50.5128V32.8359C50.5128 33.312 50.1268 33.698 49.6507 33.698H1.37505C0.898974 33.698 0.512939 33.312 0.512939 32.8359V17.3186Z" fill="#F5F5F5"/>
<path d="M7.59967 9.14119C7.59967 6.30643 9.67975 3.95653 12.3959 3.52186C12.5433 3.49823 12.55 3.2954 12.4044 3.2618C11.732 3.10722 11.0178 3.06317 10.2762 3.16415C7.34674 3.56317 5.08229 6.09832 5.04089 9.05457C4.99372 12.4301 7.715 15.1788 11.0746 15.1788C11.5319 15.1788 11.9759 15.1254 12.4033 15.027C12.5487 14.9936 12.5414 14.7903 12.3941 14.7667C9.67906 14.3323 7.59967 11.987 7.59967 9.14119Z" fill="#F5F5F5"/>
<path d="M12.4405 10.658L12.1853 11.4232L11.3788 11.4295C11.2744 11.4303 11.231 11.5635 11.3151 11.6256L11.9639 12.1048L11.7206 12.8738C11.6891 12.9734 11.8025 13.0557 11.8874 12.995L12.5436 12.5259L13.1999 12.995C13.2848 13.0557 13.3981 12.9733 13.3667 12.8738L13.1233 12.1048L13.7721 11.6256C13.8562 11.5634 13.8129 11.4303 13.7085 11.4295L12.9019 11.4232L12.6468 10.658C12.6136 10.559 12.4735 10.559 12.4405 10.658Z" fill="#F5F5F5"/>
<path d="M16.4278 10.658L16.1726 11.4232L15.3661 11.4295C15.2617 11.4303 15.2183 11.5635 15.3024 11.6256L15.9512 12.1048L15.7079 12.8738C15.6764 12.9734 15.7898 13.0557 15.8747 12.995L16.5309 12.5259L17.1872 12.995C17.2721 13.0557 17.3854 12.9733 17.354 12.8738L17.1106 12.1048L17.7594 11.6256C17.8435 11.5634 17.8002 11.4303 17.6958 11.4295L16.8892 11.4232L16.6341 10.658C16.601 10.559 16.4609 10.559 16.4278 10.658Z" fill="#F5F5F5"/>
<path d="M14.452 4.50515L14.1968 5.27038L13.3903 5.27663C13.2859 5.27751 13.2425 5.41071 13.3266 5.47272L13.9754 5.95192L13.7321 6.72096C13.7006 6.82057 13.814 6.90289 13.8989 6.84215L14.5551 6.37311L15.2114 6.84215C15.2963 6.90289 15.4096 6.82047 15.3781 6.72096L15.1348 5.95192L15.7836 5.47272C15.8677 5.41061 15.8243 5.27751 15.7199 5.27663L14.9134 5.27038L14.6582 4.50515C14.6251 4.40612 14.485 4.40612 14.452 4.50515Z" fill="#F5F5F5"/>
<path d="M11.273 6.86241L11.0178 7.62765L10.2113 7.6339C10.1069 7.63478 10.0636 7.76798 10.1476 7.82999L10.7965 8.30919L10.5531 9.07823C10.5217 9.17784 10.635 9.26016 10.7199 9.19942L11.3761 8.73038L12.0324 9.19942C12.1174 9.26016 12.2306 9.17774 12.1992 9.07823L11.9558 8.30919L12.6047 7.82999C12.6887 7.76788 12.6454 7.63478 12.541 7.6339L11.7344 7.62765L11.4793 6.86241C11.4462 6.76339 11.3061 6.76339 11.273 6.86241Z" fill="#F5F5F5"/>
<path d="M17.6041 6.86241L17.3489 7.62765L16.5424 7.6339C16.438 7.63478 16.3946 7.76798 16.4787 7.82999L17.1275 8.30919L16.8842 9.07823C16.8527 9.17784 16.9661 9.26016 17.051 9.19942L17.7072 8.73038L18.3635 9.19942C18.4484 9.26016 18.5617 9.17774 18.5302 9.07823L18.2869 8.30919L18.9357 7.82999C19.0198 7.76788 18.9764 7.63478 18.872 7.6339L18.0655 7.62765L17.8103 6.86241C17.7772 6.76339 17.6371 6.76339 17.6041 6.86241Z" fill="#F5F5F5"/>
</svg>
