<svg width="51" height="34" viewBox="0 0 51 34" fill="none" xmlns="http://www.w3.org/2000/svg">
<path d="M50.0528 33.4098H1.77715C1.30107 33.4098 0.915039 33.0237 0.915039 32.5477V1.51323C0.915039 1.03716 1.30107 0.651123 1.77715 0.651123H50.0529C50.529 0.651123 50.915 1.03716 50.915 1.51323V32.5477C50.9149 33.0238 50.5289 33.4098 50.0528 33.4098Z" fill="#FF4B55"/>
<path d="M13.8752 17.0303C13.8752 20.8418 16.9643 23.931 20.7724 23.931C22.1916 23.931 23.5003 23.4949 24.5903 22.7557C24.7554 22.6438 24.9462 22.8596 24.808 23.0035C23.2441 24.6324 21.0541 25.6511 18.6173 25.6511C13.6704 25.6511 9.69718 21.4809 10.0182 16.463C10.2985 12.0822 13.9306 8.56462 18.3179 8.41491C20.8716 8.32771 23.1747 9.35983 24.802 11.0517C24.9416 11.1968 24.7512 11.4159 24.5846 11.303C23.4957 10.5655 22.1891 10.1298 20.7724 10.1298C16.9644 10.1298 13.8752 13.2258 13.8752 17.0303Z" fill="#F5F5F5"/>
<path d="M29.596 15.8443L28.2447 14.0766C28.1692 13.9778 28.0112 14.032 28.0124 14.1564L28.0321 16.3813L25.9334 17.1202C25.816 17.1615 25.8189 17.3284 25.9375 17.3658L28.0596 18.0346L28.1138 20.259C28.1168 20.3833 28.2766 20.4322 28.3487 20.3309L29.6405 18.5194L31.7728 19.1552C31.8919 19.1908 31.9878 19.0542 31.9138 18.9542L30.59 17.1657L31.8536 15.3344C31.9243 15.232 31.8239 15.0986 31.706 15.1381L29.596 15.8443Z" fill="#F5F5F5"/>
</svg>
