<svg width="51" height="33" viewBox="0 0 51 33" fill="none" xmlns="http://www.w3.org/2000/svg">
<path d="M49.7588 32.9819H1.48308C1.00701 32.9819 0.620972 32.5959 0.620972 32.1198V1.08537C0.620972 0.609301 1.00701 0.223267 1.48308 0.223267H49.7589C50.2349 0.223267 50.621 0.609301 50.621 1.08537V32.1198C50.6209 32.596 50.2348 32.9819 49.7588 32.9819Z" fill="#FF4B55"/>
<path d="M1.48308 0.223389H24.7589C25.235 0.223389 25.621 0.609423 25.621 1.0855V15.7406C25.621 16.2167 25.235 16.6028 24.7589 16.6028H1.48308C1.00701 16.6027 0.620972 16.2166 0.620972 15.7405V1.0854C0.620972 0.609325 1.00701 0.223389 1.48308 0.223389Z" fill="#41479B"/>
<path d="M10.0349 8.4131C10.0349 7.56135 10.38 6.79026 10.9381 6.23196L8.35271 5.49241C8.20261 5.44954 8.09509 5.63586 8.2072 5.74436L10.1419 7.61496L7.53113 8.26769C7.37976 8.30549 7.37976 8.52072 7.53113 8.55861L10.1419 9.21134L8.2072 11.0819C8.09499 11.1904 8.20261 11.3768 8.35271 11.3339L10.9381 10.5943C10.38 10.036 10.0349 9.26486 10.0349 8.4131Z" fill="#F5F5F5"/>
<path d="M10.9392 6.23057C11.4975 5.67256 12.2686 5.32745 13.1203 5.32745C13.9721 5.32745 14.7432 5.67256 15.3015 6.23057L16.041 3.64523C16.0839 3.49513 15.8976 3.38761 15.7891 3.49972L13.9185 5.43428L13.2657 2.82355C13.2279 2.67218 13.0127 2.67218 12.9748 2.82355L12.3221 5.43428L10.4515 3.49972C10.343 3.38751 10.1567 3.49513 10.1995 3.64523L10.9392 6.23057Z" fill="#F5F5F5"/>
<path d="M15.302 10.5956C14.7437 11.1536 13.9726 11.4987 13.1208 11.4987C12.2691 11.4987 11.498 11.1536 10.9397 10.5956L10.2001 13.181C10.1573 13.3311 10.3436 13.4386 10.4521 13.3265L12.3227 11.3919L12.9754 14.0026C13.0132 14.154 13.2285 14.154 13.2663 14.0026L13.9191 11.3919L15.7897 13.3265C15.8982 13.4387 16.0845 13.3311 16.0416 13.181L15.302 10.5956Z" fill="#F5F5F5"/>
<path d="M18.7101 8.26757L16.0994 7.61484L18.034 5.74424C18.1462 5.63574 18.0385 5.44941 17.8884 5.49228L15.3031 6.23183C15.8611 6.79013 16.2062 7.56123 16.2062 8.41298C16.2062 9.26474 15.8611 10.0358 15.3031 10.5941L17.8884 11.3337C18.0385 11.3766 18.1461 11.1902 18.034 11.0817L16.0994 9.21113L18.7101 8.55839C18.8616 8.5207 18.8616 8.30556 18.7101 8.26757Z" fill="#F5F5F5"/>
<path d="M13.1205 10.8703C14.4775 10.8703 15.5775 9.77024 15.5775 8.41326C15.5775 7.05629 14.4775 5.95624 13.1205 5.95624C11.7635 5.95624 10.6635 7.05629 10.6635 8.41326C10.6635 9.77024 11.7635 10.8703 13.1205 10.8703Z" fill="#F5F5F5"/>
</svg>
