<svg width="50" height="34" viewBox="0 0 50 34" fill="none" xmlns="http://www.w3.org/2000/svg">
<path d="M49.1378 33.703H0.862108C0.386034 33.703 0 33.317 0 32.8409V1.8065C0 1.33043 0.386034 0.944397 0.862108 0.944397H49.1379C49.614 0.944397 50 1.33043 50 1.8065V32.8409C49.9999 33.3171 49.6139 33.703 49.1378 33.703Z" fill="#F5F5F5"/>
<path d="M49.9999 3.46441H0V1.8065C0 1.33043 0.386034 0.944397 0.862108 0.944397H49.1379C49.614 0.944397 50 1.33043 50 1.8065L49.9999 3.46441Z" fill="#FF4B55"/>
<path d="M49.9999 11.0239H0V13.5438H49.9999V11.0239Z" fill="#FF4B55"/>
<path d="M49.9999 5.98389H0V8.5038H49.9999V5.98389Z" fill="#FF4B55"/>
<path d="M49.9999 18.5837H0.862108C0.386034 18.5837 0 18.1976 0 17.7216V16.0637H49.9999V18.5837Z" fill="#FF4B55"/>
<path d="M49.9999 26.144H0V28.6639H49.9999V26.144Z" fill="#FF4B55"/>
<path d="M49.1378 33.703H0.862108C0.386034 33.703 0 33.3169 0 32.8409V31.183H49.9999V32.841C49.9999 33.317 49.6139 33.703 49.1378 33.703Z" fill="#FF4B55"/>
<path d="M49.9999 21.1039H0V23.6239H49.9999V21.1039Z" fill="#FF4B55"/>
<path d="M22.4137 0.944519H0.862108C0.386034 0.944519 0 1.33046 0 1.80653V17.7215C0 18.1976 0.386034 18.5836 0.862108 18.5836H22.4138C22.8899 18.5836 23.2759 18.1976 23.2759 17.7215V1.80653C23.2758 1.33046 22.8898 0.944519 22.4137 0.944519Z" fill="#41479B"/>
<path d="M2.42152 2.92319L2.61234 3.49546L3.21557 3.50005C3.29369 3.50073 3.32602 3.60034 3.26322 3.64673L2.77797 4.00512L2.96 4.58022C2.98363 4.65463 2.89877 4.71635 2.8352 4.67084L2.34447 4.32016L1.85375 4.67094C1.79018 4.71635 1.70551 4.65473 1.72895 4.58032L1.91098 4.00522L1.42573 3.64682C1.36293 3.60034 1.39526 3.50083 1.47338 3.50014L2.0766 3.49556L2.26742 2.92329C2.29203 2.84907 2.39672 2.84907 2.42152 2.92319Z" fill="#F5F5F5"/>
<path d="M2.42113 5.91665L2.61195 6.48892L3.21518 6.49351C3.2933 6.49419 3.32562 6.5938 3.26283 6.64018L2.77758 6.99858L2.95961 7.57368C2.98324 7.64809 2.89838 7.70981 2.8348 7.6643L2.34408 7.31362L1.85336 7.6644C1.78979 7.70981 1.70512 7.64819 1.72856 7.57378L1.91059 6.99868L1.42534 6.64028C1.36254 6.5938 1.39487 6.49429 1.47299 6.4936L2.07621 6.48901L2.26703 5.91675C2.29164 5.84263 2.39633 5.84263 2.42113 5.91665Z" fill="#F5F5F5"/>
<path d="M2.42113 8.91024L2.61195 9.48251L3.21518 9.4871C3.2933 9.48778 3.32562 9.58739 3.26283 9.63378L2.77758 9.99217L2.95961 10.5673C2.98324 10.6417 2.89838 10.7034 2.8348 10.6579L2.34408 10.3072L1.85336 10.658C1.78979 10.7034 1.70512 10.6418 1.72856 10.5674L1.91059 9.99227L1.42534 9.63387C1.36254 9.58739 1.39487 9.48788 1.47299 9.48719L2.07621 9.4826L2.26703 8.91034C2.29164 8.83622 2.39633 8.83622 2.42113 8.91024Z" fill="#F5F5F5"/>
<path d="M2.42113 11.9039L2.61195 12.4762L3.21518 12.4808C3.2933 12.4814 3.32562 12.5811 3.26283 12.6274L2.77758 12.9858L2.95961 13.5609C2.98324 13.6353 2.89838 13.6971 2.8348 13.6516L2.34408 13.3009L1.85336 13.6517C1.78979 13.6971 1.70512 13.6354 1.72856 13.561L1.91059 12.9859L1.42534 12.6275C1.36254 12.5811 1.39487 12.4815 1.47299 12.4809L2.07621 12.4763L2.26703 11.904C2.29164 11.8298 2.39633 11.8298 2.42113 11.9039Z" fill="#F5F5F5"/>
<path d="M2.42113 14.8974L2.61195 15.4697L3.21518 15.4743C3.2933 15.475 3.32562 15.5746 3.26283 15.621L2.77758 15.9794L2.95961 16.5545C2.98324 16.6289 2.89838 16.6906 2.8348 16.6451L2.34408 16.2944L1.85336 16.6452C1.78979 16.6906 1.70512 16.629 1.72856 16.5546L1.91059 15.9795L1.42534 15.6211C1.36254 15.5746 1.39487 15.4751 1.47299 15.4744L2.07621 15.4698L2.26703 14.8975C2.29164 14.8232 2.39633 14.8232 2.42113 14.8974Z" fill="#F5F5F5"/>
<path d="M4.74458 4.39078L4.9354 4.96305L5.53862 4.96764C5.61674 4.96832 5.64907 5.06793 5.58628 5.11432L5.10102 5.47272L5.28305 6.04781C5.30669 6.12223 5.22182 6.18394 5.15825 6.13844L4.66753 5.78766L4.17681 6.13844C4.11323 6.18385 4.02856 6.12223 4.052 6.04781L4.23403 5.47272L3.74878 5.11432C3.68599 5.06783 3.71831 4.96832 3.79644 4.96764L4.39966 4.96305L4.59048 4.39078C4.61499 4.31676 4.71987 4.31676 4.74458 4.39078Z" fill="#F5F5F5"/>
<path d="M4.74458 7.38445L4.9354 7.95671L5.53862 7.9613C5.61674 7.96198 5.64907 8.06159 5.58628 8.10798L5.10102 8.46638L5.28305 9.04147C5.30669 9.11589 5.22182 9.17761 5.15825 9.1321L4.66753 8.78132L4.17681 9.1321C4.11323 9.17751 4.02856 9.11599 4.052 9.04147L4.23403 8.46638L3.74878 8.10798C3.68599 8.0615 3.71831 7.96198 3.79644 7.9613L4.39966 7.95671L4.59048 7.38445C4.61499 7.31033 4.71987 7.31033 4.74458 7.38445Z" fill="#F5F5F5"/>
<path d="M4.74458 10.378L4.9354 10.9502L5.53862 10.9548C5.61674 10.9555 5.64907 11.0551 5.58628 11.1015L5.10102 11.4599L5.28305 12.035C5.30669 12.1094 5.22182 12.1711 5.15825 12.1256L4.66753 11.7749L4.17681 12.1256C4.11323 12.171 4.02856 12.1094 4.052 12.035L4.23403 11.4599L3.74878 11.1015C3.68599 11.055 3.71831 10.9555 3.79644 10.9548L4.39966 10.9502L4.59048 10.378C4.61499 10.3039 4.71987 10.3039 4.74458 10.378Z" fill="#F5F5F5"/>
<path d="M4.74458 13.3716L4.9354 13.9438L5.53862 13.9484C5.61674 13.9491 5.64907 14.0487 5.58628 14.0951L5.10102 14.4535L5.28305 15.0286C5.30669 15.103 5.22182 15.1647 5.15825 15.1192L4.66753 14.7684L4.17681 15.1192C4.11323 15.1646 4.02856 15.103 4.052 15.0286L4.23403 14.4535L3.74878 14.0951C3.68599 14.0486 3.71831 13.9491 3.79644 13.9484L4.39966 13.9438L4.59048 13.3716C4.61499 13.2975 4.71987 13.2975 4.74458 13.3716Z" fill="#F5F5F5"/>
<path d="M7.0682 2.92314L7.25902 3.49541L7.86225 3.5C7.94037 3.50068 7.97269 3.60029 7.9099 3.64668L7.42465 4.00507L7.60668 4.58017C7.63031 4.65458 7.54545 4.7163 7.48188 4.6708L6.99115 4.32002L6.50043 4.6708C6.43686 4.71621 6.35219 4.65458 6.37563 4.58017L6.55766 4.00507L6.07241 3.64668C6.00961 3.60019 6.04194 3.50068 6.12006 3.5L6.72328 3.49541L6.9141 2.92314C6.93871 2.84902 7.0435 2.84902 7.0682 2.92314Z" fill="#F5F5F5"/>
<path d="M7.0682 5.91666L7.25902 6.48893L7.86225 6.49352C7.94037 6.4942 7.97269 6.59381 7.9099 6.6402L7.42465 6.99859L7.60668 7.57369C7.63031 7.6481 7.54545 7.70982 7.48188 7.66431L6.99115 7.31353L6.50043 7.66431C6.43686 7.70972 6.35219 7.6481 6.37563 7.57369L6.55766 6.99859L6.07241 6.6402C6.00961 6.59371 6.04194 6.4942 6.12006 6.49352L6.72328 6.48893L6.9141 5.91666C6.93871 5.84264 7.0435 5.84264 7.0682 5.91666Z" fill="#F5F5F5"/>
<path d="M7.0682 8.91025L7.25902 9.48252L7.86225 9.48711C7.94037 9.48779 7.97269 9.5874 7.9099 9.63379L7.42465 9.99219L7.60668 10.5673C7.63031 10.6417 7.54545 10.7034 7.48188 10.6579L6.99115 10.3071L6.50043 10.6579C6.43686 10.7033 6.35219 10.6417 6.37563 10.5673L6.55766 9.99219L6.07241 9.63379C6.00961 9.58731 6.04194 9.48779 6.12006 9.48711L6.72328 9.48252L6.9141 8.91025C6.93871 8.83623 7.0435 8.83623 7.0682 8.91025Z" fill="#F5F5F5"/>
<path d="M7.0682 11.9039L7.25902 12.4761L7.86225 12.4807C7.94037 12.4814 7.97269 12.581 7.9099 12.6274L7.42465 12.9858L7.60668 13.5609C7.63031 13.6353 7.54545 13.697 7.48188 13.6515L6.99115 13.3007L6.50043 13.6515C6.43686 13.6969 6.35219 13.6353 6.37563 13.5609L6.55766 12.9858L6.07241 12.6274C6.00961 12.5809 6.04194 12.4814 6.12006 12.4807L6.72328 12.4761L6.9141 11.9039C6.93871 11.8297 7.0435 11.8297 7.0682 11.9039Z" fill="#F5F5F5"/>
<path d="M7.0682 14.8975L7.25902 15.4697L7.86225 15.4743C7.94037 15.475 7.97269 15.5746 7.9099 15.621L7.42465 15.9794L7.60668 16.5545C7.63031 16.6289 7.54545 16.6906 7.48188 16.6451L6.99115 16.2943L6.50043 16.6451C6.43686 16.6905 6.35219 16.6289 6.37563 16.5545L6.55766 15.9794L6.07241 15.621C6.00961 15.5745 6.04194 15.475 6.12006 15.4743L6.72328 15.4697L6.9141 14.8975C6.93871 14.8232 7.0435 14.8232 7.0682 14.8975Z" fill="#F5F5F5"/>
<path d="M9.39191 4.39078L9.58273 4.96305L10.186 4.96764C10.2641 4.96832 10.2964 5.06793 10.2336 5.11432L9.74836 5.47272L9.93039 6.04781C9.95402 6.12223 9.86916 6.18394 9.80558 6.13844L9.31486 5.78766L8.82414 6.13844C8.76057 6.18385 8.6759 6.12223 8.69934 6.04781L8.88137 5.47272L8.39611 5.11432C8.33332 5.06783 8.36564 4.96832 8.44377 4.96764L9.04699 4.96305L9.23781 4.39078C9.26232 4.31676 9.3672 4.31676 9.39191 4.39078Z" fill="#F5F5F5"/>
<path d="M9.39191 7.38445L9.58273 7.95671L10.186 7.9613C10.2641 7.96198 10.2964 8.06159 10.2336 8.10798L9.74836 8.46638L9.93039 9.04147C9.95402 9.11589 9.86916 9.17761 9.80558 9.1321L9.31486 8.78132L8.82414 9.1321C8.76057 9.17751 8.6759 9.11599 8.69934 9.04147L8.88137 8.46638L8.39611 8.10798C8.33332 8.0615 8.36564 7.96198 8.44377 7.9613L9.04699 7.95671L9.23781 7.38445C9.26232 7.31033 9.3672 7.31033 9.39191 7.38445Z" fill="#F5F5F5"/>
<path d="M9.39191 10.378L9.58273 10.9502L10.186 10.9548C10.2641 10.9555 10.2964 11.0551 10.2336 11.1015L9.74836 11.4599L9.93039 12.035C9.95402 12.1094 9.86916 12.1711 9.80558 12.1256L9.31486 11.7749L8.82414 12.1256C8.76057 12.171 8.6759 12.1094 8.69934 12.035L8.88137 11.4599L8.39611 11.1015C8.33332 11.055 8.36564 10.9555 8.44377 10.9548L9.04699 10.9502L9.23781 10.378C9.26232 10.3039 9.3672 10.3039 9.39191 10.378Z" fill="#F5F5F5"/>
<path d="M9.39191 13.3716L9.58273 13.9438L10.186 13.9484C10.2641 13.9491 10.2964 14.0487 10.2336 14.0951L9.74836 14.4535L9.93039 15.0286C9.95402 15.103 9.86916 15.1647 9.80558 15.1192L9.31486 14.7684L8.82414 15.1192C8.76057 15.1646 8.6759 15.103 8.69934 15.0286L8.88137 14.4535L8.39611 14.0951C8.33332 14.0486 8.36564 13.9491 8.44377 13.9484L9.04699 13.9438L9.23781 13.3716C9.26232 13.2975 9.3672 13.2975 9.39191 13.3716Z" fill="#F5F5F5"/>
<path d="M11.7154 2.92314L11.9062 3.49541L12.5094 3.5C12.5875 3.50068 12.6199 3.60029 12.5571 3.64668L12.0718 4.00507L12.2538 4.58017C12.2775 4.65458 12.1926 4.7163 12.129 4.6708L11.6382 4.32002L11.1475 4.6708C11.0839 4.71621 10.9993 4.65458 11.0227 4.58017L11.2047 4.00507L10.7195 3.64668C10.6567 3.60019 10.689 3.50068 10.7671 3.5L11.3704 3.49541L11.5612 2.92314C11.5859 2.84902 11.6907 2.84902 11.7154 2.92314Z" fill="#F5F5F5"/>
<path d="M11.7154 5.91666L11.9062 6.48893L12.5094 6.49352C12.5875 6.4942 12.6199 6.59381 12.5571 6.6402L12.0718 6.99859L12.2538 7.57369C12.2775 7.6481 12.1926 7.70982 12.129 7.66431L11.6382 7.31353L11.1475 7.66431C11.0839 7.70972 10.9993 7.6481 11.0227 7.57369L11.2047 6.99859L10.7195 6.6402C10.6567 6.59371 10.689 6.4942 10.7671 6.49352L11.3704 6.48893L11.5612 5.91666C11.5859 5.84264 11.6907 5.84264 11.7154 5.91666Z" fill="#F5F5F5"/>
<path d="M11.7154 8.91025L11.9062 9.48252L12.5094 9.48711C12.5875 9.48779 12.6199 9.5874 12.5571 9.63379L12.0718 9.99219L12.2538 10.5673C12.2775 10.6417 12.1926 10.7034 12.129 10.6579L11.6382 10.3071L11.1475 10.6579C11.0839 10.7033 10.9993 10.6417 11.0227 10.5673L11.2047 9.99219L10.7195 9.63379C10.6567 9.58731 10.689 9.48779 10.7671 9.48711L11.3704 9.48252L11.5612 8.91025C11.5859 8.83623 11.6907 8.83623 11.7154 8.91025Z" fill="#F5F5F5"/>
<path d="M11.7154 11.9039L11.9062 12.4761L12.5094 12.4807C12.5875 12.4814 12.6199 12.581 12.5571 12.6274L12.0718 12.9858L12.2538 13.5609C12.2775 13.6353 12.1926 13.697 12.129 13.6515L11.6382 13.3007L11.1475 13.6515C11.0839 13.6969 10.9993 13.6353 11.0227 13.5609L11.2047 12.9858L10.7195 12.6274C10.6567 12.5809 10.689 12.4814 10.7671 12.4807L11.3704 12.4761L11.5612 11.9039C11.5859 11.8297 11.6907 11.8297 11.7154 11.9039Z" fill="#F5F5F5"/>
<path d="M11.7154 14.8975L11.9062 15.4697L12.5094 15.4743C12.5875 15.475 12.6199 15.5746 12.5571 15.621L12.0718 15.9794L12.2538 16.5545C12.2775 16.6289 12.1926 16.6906 12.129 16.6451L11.6382 16.2943L11.1475 16.6451C11.0839 16.6905 10.9993 16.6289 11.0227 16.5545L11.2047 15.9794L10.7195 15.621C10.6567 15.5745 10.689 15.475 10.7671 15.4743L11.3704 15.4697L11.5612 14.8975C11.5859 14.8232 11.6907 14.8232 11.7154 14.8975Z" fill="#F5F5F5"/>
<path d="M14.039 4.39078L14.2298 4.96305L14.833 4.96764C14.9111 4.96832 14.9435 5.06793 14.8807 5.11432L14.3954 5.47272L14.5775 6.04781C14.6011 6.12223 14.5162 6.18394 14.4527 6.13844L13.9619 5.78766L13.4712 6.13844C13.4076 6.18385 13.323 6.12223 13.3464 6.04781L13.5284 5.47272L13.0432 5.11432C12.9804 5.06783 13.0127 4.96832 13.0908 4.96764L13.6941 4.96305L13.8849 4.39078C13.9096 4.31676 14.0143 4.31676 14.039 4.39078Z" fill="#F5F5F5"/>
<path d="M14.039 7.38445L14.2298 7.95671L14.833 7.9613C14.9111 7.96198 14.9435 8.06159 14.8807 8.10798L14.3954 8.46638L14.5775 9.04147C14.6011 9.11589 14.5162 9.17761 14.4527 9.1321L13.9619 8.78132L13.4712 9.1321C13.4076 9.17751 13.323 9.11599 13.3464 9.04147L13.5284 8.46638L13.0432 8.10798C12.9804 8.0615 13.0127 7.96198 13.0908 7.9613L13.6941 7.95671L13.8849 7.38445C13.9096 7.31033 14.0143 7.31033 14.039 7.38445Z" fill="#F5F5F5"/>
<path d="M14.039 10.378L14.2298 10.9502L14.833 10.9548C14.9111 10.9555 14.9435 11.0551 14.8807 11.1015L14.3954 11.4599L14.5775 12.035C14.6011 12.1094 14.5162 12.1711 14.4527 12.1256L13.9619 11.7749L13.4712 12.1256C13.4076 12.171 13.323 12.1094 13.3464 12.035L13.5284 11.4599L13.0432 11.1015C12.9804 11.055 13.0127 10.9555 13.0908 10.9548L13.6941 10.9502L13.8849 10.378C13.9096 10.3039 14.0143 10.3039 14.039 10.378Z" fill="#F5F5F5"/>
<path d="M14.039 13.3716L14.2298 13.9438L14.833 13.9484C14.9111 13.9491 14.9435 14.0487 14.8807 14.0951L14.3954 14.4535L14.5775 15.0286C14.6011 15.103 14.5162 15.1647 14.4527 15.1192L13.9619 14.7684L13.4712 15.1192C13.4076 15.1646 13.323 15.103 13.3464 15.0286L13.5284 14.4535L13.0432 14.0951C12.9804 14.0486 13.0127 13.9491 13.0908 13.9484L13.6941 13.9438L13.8849 13.3716C13.9096 13.2975 14.0143 13.2975 14.039 13.3716Z" fill="#F5F5F5"/>
<path d="M16.3626 2.92314L16.5534 3.49541L17.1566 3.5C17.2348 3.50068 17.2671 3.60029 17.2043 3.64668L16.7191 4.00507L16.9011 4.58017C16.9247 4.65458 16.8399 4.7163 16.7763 4.6708L16.2856 4.32002L15.7948 4.6708C15.7313 4.71621 15.6466 4.65458 15.67 4.58017L15.8521 4.00507L15.3668 3.64668C15.304 3.60019 15.3363 3.50068 15.4145 3.5L16.0177 3.49541L16.2085 2.92314C16.233 2.84902 16.3379 2.84902 16.3626 2.92314Z" fill="#F5F5F5"/>
<path d="M16.3626 5.91666L16.5534 6.48893L17.1566 6.49352C17.2348 6.4942 17.2671 6.59381 17.2043 6.6402L16.7191 6.99859L16.9011 7.57369C16.9247 7.6481 16.8399 7.70982 16.7763 7.66431L16.2856 7.31353L15.7948 7.66431C15.7313 7.70972 15.6466 7.6481 15.67 7.57369L15.8521 6.99859L15.3668 6.6402C15.304 6.59371 15.3363 6.4942 15.4145 6.49352L16.0177 6.48893L16.2085 5.91666C16.233 5.84264 16.3379 5.84264 16.3626 5.91666Z" fill="#F5F5F5"/>
<path d="M16.3626 8.91025L16.5534 9.48252L17.1566 9.48711C17.2348 9.48779 17.2671 9.5874 17.2043 9.63379L16.7191 9.99219L16.9011 10.5673C16.9247 10.6417 16.8399 10.7034 16.7763 10.6579L16.2856 10.3071L15.7948 10.6579C15.7313 10.7033 15.6466 10.6417 15.67 10.5673L15.8521 9.99219L15.3668 9.63379C15.304 9.58731 15.3363 9.48779 15.4145 9.48711L16.0177 9.48252L16.2085 8.91025C16.233 8.83623 16.3379 8.83623 16.3626 8.91025Z" fill="#F5F5F5"/>
<path d="M16.3626 11.9039L16.5534 12.4761L17.1566 12.4807C17.2348 12.4814 17.2671 12.581 17.2043 12.6274L16.7191 12.9858L16.9011 13.5609C16.9247 13.6353 16.8399 13.697 16.7763 13.6515L16.2856 13.3007L15.7948 13.6515C15.7313 13.6969 15.6466 13.6353 15.67 13.5609L15.8521 12.9858L15.3668 12.6274C15.304 12.5809 15.3363 12.4814 15.4145 12.4807L16.0177 12.4761L16.2085 11.9039C16.233 11.8297 16.3379 11.8297 16.3626 11.9039Z" fill="#F5F5F5"/>
<path d="M16.3626 14.8975L16.5534 15.4697L17.1566 15.4743C17.2348 15.475 17.2671 15.5746 17.2043 15.621L16.7191 15.9794L16.9011 16.5545C16.9247 16.6289 16.8399 16.6906 16.7763 16.6451L16.2856 16.2943L15.7948 16.6451C15.7313 16.6905 15.6466 16.6289 15.67 16.5545L15.8521 15.9794L15.3668 15.621C15.304 15.5745 15.3363 15.475 15.4145 15.4743L16.0177 15.4697L16.2085 14.8975C16.233 14.8232 16.3379 14.8232 16.3626 14.8975Z" fill="#F5F5F5"/>
<path d="M18.6861 4.39078L18.8769 4.96305L19.4801 4.96764C19.5582 4.96832 19.5905 5.06793 19.5277 5.11432L19.0425 5.47272L19.2245 6.04781C19.2482 6.12223 19.1633 6.18394 19.0997 6.13844L18.609 5.78766L18.1183 6.13844C18.0547 6.18385 17.97 6.12223 17.9935 6.04781L18.1755 5.47272L17.6903 5.11432C17.6275 5.06783 17.6598 4.96832 17.7379 4.96764L18.3411 4.96305L18.532 4.39078C18.5566 4.31676 18.6614 4.31676 18.6861 4.39078Z" fill="#F5F5F5"/>
<path d="M18.6861 7.38445L18.8769 7.95671L19.4801 7.9613C19.5582 7.96198 19.5905 8.06159 19.5277 8.10798L19.0425 8.46638L19.2245 9.04147C19.2482 9.11589 19.1633 9.17761 19.0997 9.1321L18.609 8.78132L18.1183 9.1321C18.0547 9.17751 17.97 9.11599 17.9935 9.04147L18.1755 8.46638L17.6903 8.10798C17.6275 8.0615 17.6598 7.96198 17.7379 7.9613L18.3411 7.95671L18.532 7.38445C18.5566 7.31033 18.6614 7.31033 18.6861 7.38445Z" fill="#F5F5F5"/>
<path d="M18.6861 10.378L18.8769 10.9502L19.4801 10.9548C19.5582 10.9555 19.5905 11.0551 19.5277 11.1015L19.0425 11.4599L19.2245 12.035C19.2482 12.1094 19.1633 12.1711 19.0997 12.1256L18.609 11.7749L18.1183 12.1256C18.0547 12.171 17.97 12.1094 17.9935 12.035L18.1755 11.4599L17.6903 11.1015C17.6275 11.055 17.6598 10.9555 17.7379 10.9548L18.3411 10.9502L18.532 10.378C18.5566 10.3039 18.6614 10.3039 18.6861 10.378Z" fill="#F5F5F5"/>
<path d="M18.6861 13.3716L18.8769 13.9438L19.4801 13.9484C19.5582 13.9491 19.5905 14.0487 19.5277 14.0951L19.0425 14.4535L19.2245 15.0286C19.2482 15.103 19.1633 15.1647 19.0997 15.1192L18.609 14.7684L18.1183 15.1192C18.0547 15.1646 17.97 15.103 17.9935 15.0286L18.1755 14.4535L17.6903 14.0951C17.6275 14.0486 17.6598 13.9491 17.7379 13.9484L18.3411 13.9438L18.532 13.3716C18.5566 13.2975 18.6614 13.2975 18.6861 13.3716Z" fill="#F5F5F5"/>
<path d="M21.0097 2.92314L21.2005 3.49541L21.8037 3.5C21.8818 3.50068 21.9142 3.60029 21.8514 3.64668L21.3661 4.00507L21.5481 4.58017C21.5718 4.65458 21.4869 4.7163 21.4233 4.6708L20.9326 4.32002L20.4419 4.6708C20.3783 4.71621 20.2937 4.65458 20.3171 4.58017L20.4991 4.00507L20.0139 3.64668C19.9511 3.60019 19.9834 3.50068 20.0615 3.5L20.6648 3.49541L20.8556 2.92314C20.8802 2.84902 20.9849 2.84902 21.0097 2.92314Z" fill="#F5F5F5"/>
<path d="M21.0097 5.91666L21.2005 6.48893L21.8037 6.49352C21.8818 6.4942 21.9142 6.59381 21.8514 6.6402L21.3661 6.99859L21.5481 7.57369C21.5718 7.6481 21.4869 7.70982 21.4233 7.66431L20.9326 7.31353L20.4419 7.66431C20.3783 7.70972 20.2937 7.6481 20.3171 7.57369L20.4991 6.99859L20.0139 6.6402C19.9511 6.59371 19.9834 6.4942 20.0615 6.49352L20.6648 6.48893L20.8556 5.91666C20.8802 5.84264 20.9849 5.84264 21.0097 5.91666Z" fill="#F5F5F5"/>
<path d="M21.0097 8.91025L21.2005 9.48252L21.8037 9.48711C21.8818 9.48779 21.9142 9.5874 21.8514 9.63379L21.3661 9.99219L21.5481 10.5673C21.5718 10.6417 21.4869 10.7034 21.4233 10.6579L20.9326 10.3071L20.4419 10.6579C20.3783 10.7033 20.2937 10.6417 20.3171 10.5673L20.4991 9.99219L20.0139 9.63379C19.9511 9.58731 19.9834 9.48779 20.0615 9.48711L20.6648 9.48252L20.8556 8.91025C20.8802 8.83623 20.9849 8.83623 21.0097 8.91025Z" fill="#F5F5F5"/>
<path d="M21.0097 11.9039L21.2005 12.4761L21.8037 12.4807C21.8818 12.4814 21.9142 12.581 21.8514 12.6274L21.3661 12.9858L21.5481 13.5609C21.5718 13.6353 21.4869 13.697 21.4233 13.6515L20.9326 13.3007L20.4419 13.6515C20.3783 13.6969 20.2937 13.6353 20.3171 13.5609L20.4991 12.9858L20.0139 12.6274C19.9511 12.5809 19.9834 12.4814 20.0615 12.4807L20.6648 12.4761L20.8556 11.9039C20.8802 11.8297 20.9849 11.8297 21.0097 11.9039Z" fill="#F5F5F5"/>
<path d="M21.0097 14.8975L21.2005 15.4697L21.8037 15.4743C21.8818 15.475 21.9142 15.5746 21.8514 15.621L21.3661 15.9794L21.5481 16.5545C21.5718 16.6289 21.4869 16.6906 21.4233 16.6451L20.9326 16.2943L20.4419 16.6451C20.3783 16.6905 20.2937 16.6289 20.3171 16.5545L20.4991 15.9794L20.0139 15.621C19.9511 15.5745 19.9834 15.475 20.0615 15.4743L20.6648 15.4697L20.8556 14.8975C20.8802 14.8232 20.9849 14.8232 21.0097 14.8975Z" fill="#F5F5F5"/>
</svg>
