<svg width="51" height="34" viewBox="0 0 51 34" fill="none" xmlns="http://www.w3.org/2000/svg">
<path d="M0.789551 6.40186V27.0915L14.5826 16.7467L0.789551 6.40186Z" fill="#464655"/>
<path d="M7.68579 0.367407L23.2031 12.4364H50.7892V1.22942C50.7892 0.753344 50.4032 0.36731 49.9271 0.36731H7.68579V0.367407Z" fill="#FF4B55"/>
<path d="M7.68579 33.126L23.2031 21.057H50.7892V32.264C50.7892 32.74 50.4032 33.1261 49.9271 33.1261H7.68579V33.126Z" fill="#41479B"/>
<path d="M6.34512 0.367401H1.65166C1.17559 0.367401 0.789551 0.753338 0.789551 1.22941V4.76555L15.9237 16.7467L0.789551 28.7281V32.2639C0.789551 32.74 1.17559 33.126 1.65166 33.126H6.34463L22.6789 20.1949H50.7896V13.2985H22.679L6.34512 0.367401Z" fill="#73AF00"/>
<path d="M9.12246 0.367401H6.34473L22.6786 13.2985H50.7892V11.5742H23.2785L9.12246 0.367401Z" fill="#F5F5F5"/>
<path d="M0.789551 4.76553V6.96456L13.146 16.7467L0.789551 26.5292V28.7281L15.9237 16.7467L0.789551 4.76553Z" fill="#FFE15A"/>
<path d="M22.679 20.1949L6.34473 33.126H9.12256L23.2788 21.9192H50.7896V20.1949H22.679Z" fill="#F5F5F5"/>
</svg>
